<?xml version="1.0" standalone="no"?>
<!DOCTYPE svg PUBLIC "-//W3C//DTD SVG 1.1//EN" "http://www.w3.org/Graphics/SVG/1.1/DTD/svg11.dtd" >
<svg xmlns="http://www.w3.org/2000/svg" xmlns:xlink="http://www.w3.org/1999/xlink" version="1.1">
<metadata>
Created by FontForge 20201107 at Sun Jan  3 11:56:38 2021
 By Unknown
Copyright \(c\) 2020 by Serdar Ozturk. All rights reserved.
</metadata>
<defs>
<font id="Rota-Bold" horiz-adv-x="621" >
  <font-face 
    font-family="Rota"
    font-weight="700"
    font-stretch="normal"
    units-per-em="1250"
    panose-1="0 0 0 0 0 0 0 0 0 0"
    ascent="1000"
    descent="-250"
    x-height="600"
    cap-height="850"
    bbox="-120 -342 1569 1102"
    underline-thickness="50"
    underline-position="-125"
    stemh="125"
    stemv="53"
    unicode-range="U+000D-FB05"
  />
<missing-glyph horiz-adv-x="250" 
 />
    <glyph glyph-name="f_f" unicode="ff" horiz-adv-x="794" 
d="M503 0v482h-264v-482h-125v482h-88v118h88v51c0 148 60 206 203 206h52v-123h-40c-62 0 -90 -28 -90 -90v-44h264v51c0 148 60 206 204 206h52v-123h-41c-62 0 -90 -28 -90 -90v-44h131v-118h-131v-482h-125z" />
    <glyph glyph-name="fi" unicode="fi" horiz-adv-x="639" 
d="M586 0h-125v482h-219v-482h-125v482h-88v118h88v51c0 148 60 206 203 206h52v-123h-40c-62 0 -90 -28 -90 -90v-44h344v-600zM451 776c0 44 28 72 73 72c44 0 72 -28 72 -72s-28 -73 -72 -73c-45 0 -73 29 -73 73z" />
    <glyph glyph-name="fl" unicode="fl" horiz-adv-x="639" 
d="M585 0h-125v482h-218v-482h-125v482h-88v118h88v51c0 148 60 206 203 206h52v-123h-40c-62 0 -90 -28 -90 -90v-44h218v250h125v-850z" />
    <glyph glyph-name="f_f_i" unicode="ffi" horiz-adv-x="1021" 
d="M968 0h-125v482h-241v-482h-125v482h-238v-482h-125v482h-87v118h87v51c0 148 61 206 204 206h52v-123h-41c-62 0 -90 -28 -90 -90v-44h238v51c0 148 60 206 203 206h52v-123h-40c-62 0 -90 -28 -90 -90v-44h366v-600zM833 776c0 44 28 72 73 72c43 0 72 -28 72 -72
s-29 -73 -72 -73c-45 0 -73 29 -73 73z" />
    <glyph glyph-name="f_f_l" unicode="ffl" horiz-adv-x="1025" 
d="M972 0h-125v482h-235v-482h-125v482h-247v-482h-125v482h-88v118h88v51c0 148 60 206 203 206h52v-123h-40c-62 0 -90 -28 -90 -90v-44h247v51c0 148 60 206 203 206h52v-123h-40c-62 0 -90 -28 -90 -90v-44h235v250h125v-850z" />
    <glyph glyph-name="f_t" unicode="ft" horiz-adv-x="813" 
d="M547 727h94v-127h131v-118h-131v-269c0 -62 28 -89 90 -89h41v-124h-52c-143 0 -204 59 -204 206v276h-275v-482h-125v482h-88v118h88v51c0 148 60 206 203 206h52v-123h-40c-62 0 -90 -28 -90 -90v-44h275z" />
    <glyph glyph-name="t_f" unicode="tf" horiz-adv-x="779" 
d="M487 0v482h-241v-269c0 -62 28 -89 90 -89h41v-124h-52c-143 0 -204 59 -204 206v276h-88v118h88l31 127h94v-127h241v51c0 148 60 206 204 206h52v-123h-41c-62 0 -90 -28 -90 -90v-44h131v-118h-131v-482h-125z" />
    <glyph glyph-name=".notdef" horiz-adv-x="250" 
 />
    <glyph glyph-name="NULL" horiz-adv-x="0" 
 />
    <glyph glyph-name="CR" unicode="&#xd;" horiz-adv-x="313" 
 />
    <glyph glyph-name="space" unicode=" " horiz-adv-x="250" 
 />
    <glyph glyph-name="uni0000" horiz-adv-x="0" 
 />
    <glyph glyph-name="uni000D" horiz-adv-x="250" 
 />
    <glyph glyph-name="exclam" unicode="!" horiz-adv-x="238" 
d="M166 232h-106l-10 618h125zM39 67c0 44 28 72 73 72c44 0 72 -28 72 -72s-28 -73 -72 -73c-45 0 -73 29 -73 73z" />
    <glyph glyph-name="quotedbl" unicode="&#x22;" horiz-adv-x="392" 
d="M152 641h-106l-10 209h125zM345 641h-106l-10 209h125z" />
    <glyph glyph-name="numbersign" unicode="#" horiz-adv-x="1058" 
d="M170 0l53 211h-186l30 125h187l45 182h-184l30 125h186l51 207h131l-52 -207h232l51 207h131l-52 -207h195l-29 -125h-197l-45 -182h193l-29 -125h-196l-52 -211h-131l53 211h-232l-52 -211h-131zM385 336h231l45 182h-231z" />
    <glyph glyph-name="dollar" unicode="$" horiz-adv-x="676" 
d="M36 261h125c6 -88 88 -148 181 -148c94 0 172 46 173 128c1 86 -74 114 -164 136c-131 32 -290 54 -290 242c1 141 96 216 222 232v144h125v-146c116 -21 210 -97 212 -233h-125c-6 80 -74 119 -156 119c-84 0 -152 -39 -153 -114c-1 -87 84 -101 187 -126
c128 -30 268 -79 267 -253c-1 -130 -100 -219 -232 -242v-152h-125v151c-134 21 -244 114 -247 262z" />
    <glyph glyph-name="percent" unicode="%" horiz-adv-x="1096" 
d="M42 628c0 125 93 222 214 222s214 -97 214 -222c0 -127 -93 -223 -214 -223s-214 96 -214 223zM448 0h-125l314 850h125zM256 737c-57 0 -102 -47 -102 -109s45 -110 102 -110c58 0 103 48 103 110s-45 109 -103 109zM617 217c0 125 93 222 214 222s214 -97 214 -222
c0 -127 -93 -223 -214 -223s-214 96 -214 223zM831 326c-57 0 -102 -47 -102 -109s45 -110 102 -110c58 0 103 48 103 110s-45 109 -103 109z" />
    <glyph glyph-name="ampersand" unicode="&#x26;" horiz-adv-x="830" 
d="M405 445l154 -167c35 53 63 113 76 174h125c-18 -94 -62 -185 -120 -261l176 -191h-159l-97 105c-76 -68 -163 -111 -246 -111c-161 0 -270 91 -270 227c0 124 82 196 182 248c-52 61 -86 119 -86 186c0 118 92 200 226 200s244 -115 244 -256h-120
c-9 83 -63 139 -126 139c-60 0 -97 -38 -97 -93c0 -48 42 -98 138 -200zM482 190l-178 193c-88 -44 -132 -94 -132 -155c0 -65 58 -113 148 -113c52 0 110 28 162 75z" />
    <glyph glyph-name="quotesingle" unicode="'" horiz-adv-x="195" 
d="M152 641h-106l-10 209h125z" />
    <glyph glyph-name="parenleft" unicode="(" horiz-adv-x="416" 
d="M248 -199c-138 219 -205 410 -205 581c0 189 75 393 205 555h129c-129 -163 -203 -364 -205 -555c-2 -160 84 -404 205 -581h-129z" />
    <glyph glyph-name="parenright" unicode=")" horiz-adv-x="416" 
d="M169 -199h-129c121 177 207 421 205 581c-2 191 -75 392 -205 555h129c130 -162 205 -366 205 -555c0 -171 -67 -362 -205 -581z" />
    <glyph glyph-name="asterisk" unicode="*" horiz-adv-x="373" 
d="M304 816l35 -50l-98 -65l98 -65l-35 -51l-87 58v-91h-60v91l-88 -58l-34 51l97 65l-97 65l34 50l88 -57v91h60v-91z" />
    <glyph glyph-name="plus" unicode="+" horiz-adv-x="528" 
d="M45 324v123h158v158h124v-158h157v-123h-157v-158h-124v158h-158z" />
    <glyph glyph-name="comma" unicode="," horiz-adv-x="221" 
d="M37 67c0 44 28 72 73 72c44 0 72 -28 72 -72c0 -55 -18 -103 -60 -170l-10 -18h-69l18 33c18 32 31 59 38 83c-38 4 -62 32 -62 72z" />
    <glyph glyph-name="hyphen" unicode="-" horiz-adv-x="465" 
d="M41 324v123h378v-123h-378z" />
    <glyph glyph-name="period" unicode="." horiz-adv-x="223" 
d="M38 67c0 44 29 72 73 72s72 -28 72 -72s-28 -73 -72 -73s-73 29 -73 73z" />
    <glyph glyph-name="slash" unicode="/" horiz-adv-x="469" 
d="M140 0h-125l314 850h125z" />
    <glyph glyph-name="zero" unicode="0" horiz-adv-x="777" 
d="M37 425c0 253 139 430 351 430s351 -177 351 -430c0 -254 -139 -431 -351 -431s-351 177 -351 431zM388 732c-139 0 -226 -126 -226 -307c0 -183 87 -308 226 -308s226 125 226 308c0 182 -87 307 -226 307z" />
    <glyph glyph-name="one" unicode="1" horiz-adv-x="394" 
d="M216 0v712l-185 -70v129l208 79h102v-850h-125z" />
    <glyph glyph-name="two" unicode="2" horiz-adv-x="670" 
d="M175 125h454v-125h-579v103c0 189 121 264 251 329c160 80 197 119 197 190c0 68 -59 113 -148 113c-91 0 -150 -47 -155 -124h-125c2 166 133 244 280 244c153 0 273 -77 273 -235c0 -193 -219 -266 -298 -305c-96 -48 -150 -114 -150 -190z" />
    <glyph glyph-name="three" unicode="3" horiz-adv-x="687" 
d="M256 495h83c98 0 156 51 156 128c0 73 -55 116 -149 116s-156 -48 -160 -130h-125c1 172 135 250 284 250c158 0 279 -77 279 -239c0 -74 -30 -136 -83 -179c64 -42 101 -107 101 -189c0 -175 -129 -258 -299 -258c-157 0 -299 78 -301 250h125c4 -82 73 -130 176 -130
c111 0 174 49 174 136c0 80 -67 127 -178 127h-83v118z" />
    <glyph glyph-name="four" unicode="4" horiz-adv-x="726" 
d="M37 177v125l422 548h125v-548h100v-125h-100v-177h-125v177h-422zM193 302h266v351z" />
    <glyph glyph-name="five" unicode="5" horiz-adv-x="658" 
d="M64 411l32 439h461v-125h-346l-14 -196h128c176 0 289 -101 289 -262c0 -170 -109 -273 -288 -273c-148 0 -282 81 -284 250h125c4 -79 67 -130 159 -130c103 0 163 55 163 151c0 90 -63 146 -162 146h-263z" />
    <glyph glyph-name="six" unicode="6" horiz-adv-x="673" 
d="M39 292c0 71 23 135 63 185l279 373h144l-188 -261c168 1 299 -129 299 -297c0 -167 -129 -298 -297 -298c-170 0 -300 131 -300 298zM339 464c-99 0 -175 -76 -175 -172c0 -97 76 -173 175 -173c97 0 172 77 172 173s-74 172 -172 172z" />
    <glyph glyph-name="seven" unicode="7" horiz-adv-x="599" 
d="M568 748l-298 -748h-136l298 725h-403v125h539v-102z" />
    <glyph glyph-name="eight" unicode="8" horiz-adv-x="690" 
d="M39 243c0 88 49 162 126 207c-57 42 -92 105 -92 177c0 132 119 228 273 228c153 0 271 -96 271 -228c0 -72 -36 -135 -93 -177c76 -45 125 -119 125 -207c0 -143 -132 -249 -304 -249c-173 0 -306 106 -306 249zM346 730c-84 0 -148 -47 -148 -115
c0 -69 64 -119 147 -119c84 0 147 50 147 119c0 68 -63 115 -146 115zM345 394c-103 0 -181 -58 -181 -140c0 -79 78 -135 181 -135c102 0 179 55 179 135c0 82 -77 140 -179 140z" />
    <glyph glyph-name="nine" unicode="9" horiz-adv-x="665" 
d="M635 557c0 -71 -24 -135 -64 -185l-277 -372h-144l187 260c-168 -1 -299 129 -299 297c0 167 129 298 297 298c170 0 300 -131 300 -298zM335 385c99 0 175 76 175 172c0 97 -76 173 -175 173c-97 0 -172 -76 -172 -173c0 -96 74 -172 172 -172z" />
    <glyph glyph-name="colon" unicode=":" horiz-adv-x="233" 
d="M40 526c0 44 29 72 73 72s72 -28 72 -72s-28 -73 -72 -73s-73 29 -73 73zM40 67c0 44 29 72 73 72s72 -28 72 -72s-28 -73 -72 -73s-73 29 -73 73z" />
    <glyph glyph-name="semicolon" unicode=";" horiz-adv-x="225" 
d="M37 526c0 44 28 72 73 72c44 0 72 -28 72 -72s-28 -73 -72 -73c-45 0 -73 29 -73 73zM37 67c0 44 28 72 73 72c44 0 72 -28 72 -72c0 -55 -18 -103 -60 -170l-10 -18h-69l18 33c18 32 31 59 38 83c-38 4 -62 32 -62 72z" />
    <glyph glyph-name="less" unicode="&#x3c;" horiz-adv-x="528" 
d="M45 319v129l439 170v-129l-273 -105l273 -106v-128z" />
    <glyph glyph-name="equal" unicode="=" horiz-adv-x="531" 
d="M45 466v123h439v-123h-439zM45 215v124h439v-124h-439z" />
    <glyph glyph-name="greater" unicode="&#x3e;" horiz-adv-x="529" 
d="M45 150v128l273 106l-273 105v129l439 -170v-129z" />
    <glyph glyph-name="question" unicode="?" horiz-adv-x="666" 
d="M359 232h-125v45c0 131 70 183 149 216c67 29 107 51 107 125s-68 117 -153 117c-82 0 -149 -38 -156 -119h-125c3 163 134 239 281 239c154 0 278 -79 278 -239c1 -160 -88 -188 -176 -226c-52 -23 -80 -59 -80 -114v-44zM224 67c0 44 28 72 73 72c44 0 72 -28 72 -72
s-28 -73 -72 -73c-45 0 -73 29 -73 73z" />
    <glyph glyph-name="at" unicode="@" horiz-adv-x="1090" 
d="M547 866c278 0 495 -213 495 -486c0 -163 -70 -270 -190 -270c-86 0 -149 44 -179 109c-29 -58 -92 -95 -165 -95c-133 0 -219 94 -219 235s86 235 219 235c64 0 127 -33 146 -79v73h97v-270c0 -71 34 -111 96 -111c59 0 98 76 98 173c0 219 -175 389 -400 389
c-217 0 -397 -182 -397 -401c0 -222 176 -406 401 -406c94 0 172 22 266 73l-1 -97c-78 -48 -170 -73 -261 -73c-278 0 -502 221 -502 500c0 278 222 501 496 501zM386 359c0 -83 54 -139 134 -139s135 57 134 139c0 80 -56 139 -134 139c-80 0 -134 -56 -134 -139z" />
    <glyph glyph-name="A" unicode="A" horiz-adv-x="826" 
d="M10 0l338 850h134l338 -850h-134l-86 216h-370l-86 -216h-134zM278 337h274l-137 345z" />
    <glyph glyph-name="B" unicode="B" horiz-adv-x="686" 
d="M46 0v850h324c148 0 245 -87 245 -232c0 -80 -33 -142 -91 -179c82 -36 129 -105 129 -195c0 -141 -102 -244 -245 -244h-362zM370 725h-199v-237h208c66 0 111 50 111 122c0 69 -47 115 -120 115zM408 125c73 0 120 52 120 124c0 70 -54 122 -149 122h-208v-246h237z
" />
    <glyph glyph-name="C" unicode="C" horiz-adv-x="842" 
d="M665 556c-42 105 -129 168 -241 168c-157 0 -261 -119 -261 -299c0 -179 105 -299 261 -299c114 0 202 64 241 168h135c-44 -184 -185 -299 -375 -299c-233 0 -388 173 -388 430c0 258 155 430 388 430c190 0 328 -115 375 -299h-135z" />
    <glyph glyph-name="D" unicode="D" horiz-adv-x="765" 
d="M318 0h-271v850h262c268 0 419 -153 419 -425c0 -270 -149 -425 -410 -425zM309 725h-137v-600h146c179 0 284 111 284 300c0 192 -105 300 -293 300z" />
    <glyph glyph-name="E" unicode="E" horiz-adv-x="594" 
d="M552 725h-381v-237h372v-125h-372v-238h390v-125h-515v850h506v-125z" />
    <glyph glyph-name="F" unicode="F" horiz-adv-x="588" 
d="M171 0h-125v850h506v-125h-381v-237h372v-125h-372v-363z" />
    <glyph glyph-name="G" unicode="G" horiz-adv-x="869" 
d="M380 366v119h452c2 -22 4 -43 4 -62c0 -255 -177 -428 -400 -428c-224 0 -400 174 -400 430c0 249 168 430 399 430c175 0 307 -91 367 -243h-135c-45 74 -130 117 -231 117c-158 0 -275 -117 -275 -304c0 -188 116 -304 276 -304c141 0 249 91 270 245h-327z" />
    <glyph glyph-name="H" unicode="H" horiz-adv-x="735" 
d="M170 0h-125v850h125v-362h398v362h125v-850h-125v363h-398v-363z" />
    <glyph glyph-name="I" unicode="I" horiz-adv-x="229" 
d="M177 0h-125v850h125v-850z" />
    <glyph glyph-name="J" unicode="J" horiz-adv-x="652" 
d="M482 302v548h125v-548c0 -185 -114 -307 -287 -307c-148 0 -254 90 -282 232h132c22 -66 77 -107 150 -107c98 0 162 72 162 182z" />
    <glyph glyph-name="K" unicode="K" horiz-adv-x="691" 
d="M176 0h-125v850h125v-411l323 411h147l-330 -425l362 -425h-160l-342 402v-402z" />
    <glyph glyph-name="L" unicode="L" horiz-adv-x="596" 
d="M561 125v-125h-515v850h125v-725h390z" />
    <glyph glyph-name="M" unicode="M" horiz-adv-x="886" 
d="M170 0h-125v850h125l274 -440l275 440h125v-850h-125v611l-224 -350h-101l-224 350v-611z" />
    <glyph glyph-name="N" unicode="N" horiz-adv-x="792" 
d="M170 0h-125v850h125l449 -635v635h125v-812l1 -1h-1v-37h-125l-449 634v-634z" />
    <glyph glyph-name="O" unicode="O" horiz-adv-x="858" 
d="M38 425c0 252 162 430 392 430s391 -178 391 -430c0 -253 -161 -431 -391 -431s-392 178 -392 431zM430 732c-157 0 -267 -127 -267 -307c0 -182 110 -308 267 -308s266 126 266 308s-108 307 -266 307z" />
    <glyph glyph-name="P" unicode="P" horiz-adv-x="672" 
d="M355 301h-184v-301h-125v850h300c173 0 290 -103 290 -273c0 -165 -114 -276 -281 -276zM346 725h-175v-299h184c89 0 156 63 156 151s-68 148 -165 148z" />
    <glyph glyph-name="Q" unicode="Q" horiz-adv-x="869" 
d="M38 425c0 257 158 430 392 430c235 0 391 -172 391 -430c0 -135 -43 -247 -117 -323l103 -206h-140l-67 134c-50 -23 -107 -36 -170 -36c-234 0 -392 173 -392 431zM430 732c-159 0 -267 -123 -267 -307c0 -185 108 -308 267 -308c160 0 266 123 266 308
s-106 307 -266 307z" />
    <glyph glyph-name="R" unicode="R" horiz-adv-x="691" 
d="M171 0h-125v850h303c172 0 290 -103 290 -273c0 -126 -67 -221 -173 -259l209 -318h-150l-193 301h-161v-301zM349 725h-178v-299h187c88 0 155 63 155 151s-68 148 -164 148z" />
    <glyph glyph-name="S" unicode="S" horiz-adv-x="676" 
d="M36 261h125c6 -88 88 -148 181 -148c94 0 172 46 173 128c1 86 -74 114 -164 136c-131 32 -290 54 -290 242c1 162 126 236 278 236c147 0 279 -77 281 -239h-125c-6 80 -74 119 -156 119c-84 0 -152 -39 -153 -114c-1 -87 84 -101 187 -126c128 -30 268 -79 267 -253
c-1 -151 -134 -247 -297 -248c-160 0 -303 98 -307 267z" />
    <glyph glyph-name="T" unicode="T" horiz-adv-x="674" 
d="M399 0h-125v725h-252v125h629v-125h-252v-725z" />
    <glyph glyph-name="U" unicode="U" horiz-adv-x="799" 
d="M49 425v425h125v-425c0 -213 68 -308 221 -308c152 0 220 95 220 308v425h125v-425c0 -281 -120 -431 -345 -431c-226 0 -346 149 -346 431z" />
    <glyph glyph-name="V" unicode="V" horiz-adv-x="802" 
d="M466 0h-133l-325 850h133l259 -676l258 676h133z" />
    <glyph glyph-name="W" unicode="W" horiz-adv-x="1075" 
d="M265 0l1 3l-257 847h130l185 -607l149 607h128l147 -609l186 609h130l-258 -850h-128l-141 586l-144 -586h-128z" />
    <glyph glyph-name="X" unicode="X" horiz-adv-x="766" 
d="M752 0h-151l-220 316l-220 -316h-151l295 425l-295 425h151l220 -316l220 316h151l-296 -425z" />
    <glyph glyph-name="Y" unicode="Y" horiz-adv-x="741" 
d="M432 361v-361h-125v361l-298 489h144l217 -379l216 379h145z" />
    <glyph glyph-name="Z" unicode="Z" horiz-adv-x="679" 
d="M36 0v93l434 635h-427v122h594v-98l-429 -630h435v-122h-607z" />
    <glyph glyph-name="bracketleft" unicode="[" horiz-adv-x="418" 
d="M68 -199v1136h314v-123h-189v-890h189v-123h-314z" />
    <glyph glyph-name="backslash" unicode="\" horiz-adv-x="472" 
d="M329 0l-314 850h125l314 -850h-125z" />
    <glyph glyph-name="bracketright" unicode="]" horiz-adv-x="418" 
d="M37 -199v123h189v890h-189v123h314v-1136h-314z" />
    <glyph glyph-name="asciicircum" unicode="^" horiz-adv-x="517" 
d="M326 850l152 -198h-136l-84 109l-84 -109h-136l152 198h136z" />
    <glyph glyph-name="underscore" unicode="_" horiz-adv-x="463" 
d="M43 0v124h378v-124h-378z" />
    <glyph glyph-name="grave" unicode="`" horiz-adv-x="226" 
d="M103 653l-93 197h139l53 -197h-99z" />
    <glyph glyph-name="a" unicode="a" horiz-adv-x="704" 
d="M518 0v98c-26 -61 -107 -104 -191 -104c-173 0 -286 122 -286 307c0 184 112 306 286 306c83 0 165 -43 191 -105v98h125v-600h-125zM166 301c0 -110 72 -182 177 -182c104 0 176 73 175 181c0 107 -74 182 -176 182c-105 0 -176 -72 -176 -181z" />
    <glyph glyph-name="b" unicode="b" horiz-adv-x="705" 
d="M184 0h-125v850h125v-348c26 62 107 105 190 105c174 0 286 -122 286 -306c0 -185 -112 -307 -286 -307c-83 0 -165 43 -190 104v-98zM535 301c0 109 -71 181 -176 181c-102 0 -175 -75 -175 -182c-1 -108 71 -181 175 -181c105 0 176 72 176 182z" />
    <glyph glyph-name="c" unicode="c" horiz-adv-x="665" 
d="M331 483c-99 0 -166 -72 -166 -181c0 -110 67 -182 166 -182c73 0 129 40 154 107h132c-30 -144 -137 -232 -286 -232c-174 0 -291 122 -291 307c0 184 117 306 291 306c148 0 256 -88 286 -231h-132c-26 67 -81 106 -154 106z" />
    <glyph glyph-name="d" unicode="d" horiz-adv-x="699" 
d="M525 0v98c-25 -61 -107 -104 -190 -104c-174 0 -287 122 -287 307c0 184 113 306 287 306c82 0 164 -43 190 -105v348h125v-850h-125zM173 301c0 -110 72 -182 177 -182c104 0 176 73 175 181c0 107 -73 182 -175 182c-105 0 -177 -72 -177 -181z" />
    <glyph glyph-name="e" unicode="e" horiz-adv-x="671" 
d="M470 184h133c-41 -112 -147 -189 -267 -189c-173 0 -295 127 -295 307c0 174 126 306 292 306c165 0 292 -131 292 -303c0 -16 -1 -33 -4 -48h-451c16 -87 80 -144 165 -144c62 0 112 29 135 71zM170 348h326c-16 84 -80 142 -163 142s-146 -57 -163 -142z" />
    <glyph glyph-name="f" unicode="f" horiz-adv-x="408" 
d="M117 0v482h-88v118h88v51c0 148 60 206 203 206h52v-123h-40c-62 0 -90 -28 -90 -90v-44h131v-118h-131v-482h-125z" />
    <glyph glyph-name="g" unicode="g" horiz-adv-x="683" 
d="M511 32v66c-26 -61 -108 -104 -189 -104c-170 0 -284 122 -284 307c0 184 114 306 284 306c82 0 163 -44 189 -105v98h125v-568c0 -185 -116 -307 -287 -307c-143 0 -251 83 -283 227h132c26 -68 84 -102 151 -102c96 0 162 72 162 182zM163 301c0 -110 73 -182 175 -182
c101 0 173 73 173 181c0 105 -73 182 -174 182s-174 -72 -174 -181z" />
    <glyph glyph-name="h" unicode="h" horiz-adv-x="636" 
d="M460 301c0 110 -57 181 -145 181c-81 0 -141 -76 -141 -182v-300h-125v850h125v-348c23 61 89 105 163 105c152 0 248 -121 248 -306v-301h-125v301z" />
    <glyph glyph-name="i" unicode="i" horiz-adv-x="234" 
d="M45 776c0 44 28 72 73 72c43 0 72 -28 72 -72s-29 -73 -72 -73c-45 0 -73 29 -73 73zM180 0h-125v600h125v-600z" />
    <glyph glyph-name="j" unicode="j" horiz-adv-x="256" 
d="M56 776c0 44 28 72 73 72c44 0 72 -28 72 -72s-28 -73 -72 -73c-45 0 -73 29 -73 73zM191 600v-669c0 -148 -61 -206 -204 -206h-52v123h40c63 0 91 28 91 90v662h125z" />
    <glyph glyph-name="k" unicode="k" horiz-adv-x="582" 
d="M176 0h-125v850h125v-529l237 279h138l-237 -300l259 -300h-160l-237 279v-279z" />
    <glyph glyph-name="l" unicode="l" horiz-adv-x="233" 
d="M179 0h-125v850h125v-850z" />
    <glyph glyph-name="m" unicode="m" horiz-adv-x="1048" 
d="M465 301c0 110 -57 181 -145 181c-81 0 -140 -76 -140 -182v-300h-125v600h125v-98c22 61 88 105 162 105c92 0 163 -44 205 -120c39 76 105 120 188 120c163 0 265 -121 265 -306v-301h-125v301c0 110 -57 181 -145 181c-81 0 -140 -76 -140 -181v-301h-125v301z" />
    <glyph glyph-name="n" unicode="n" horiz-adv-x="633" 
d="M460 301c0 110 -57 181 -145 181c-81 0 -140 -76 -140 -182v-300h-125v600h125v-98c22 61 88 105 162 105c152 0 248 -121 248 -306v-301h-125v301z" />
    <glyph glyph-name="o" unicode="o" horiz-adv-x="661" 
d="M35 301c0 173 129 306 295 306s294 -133 294 -306c0 -174 -128 -307 -294 -307s-295 133 -295 307zM330 482c-96 0 -170 -78 -170 -181c0 -104 74 -182 170 -182s169 78 169 182c0 103 -73 181 -169 181z" />
    <glyph glyph-name="p" unicode="p" horiz-adv-x="685" 
d="M172 600v-98c26 61 107 104 191 104c173 0 286 -122 286 -307c0 -184 -112 -306 -286 -306c-83 0 -165 43 -191 105v-348h-125v850h125zM524 299c0 110 -72 182 -177 182c-104 0 -176 -73 -175 -181c0 -107 74 -182 176 -182c105 0 176 72 176 181z" />
    <glyph glyph-name="q" unicode="q" horiz-adv-x="688" 
d="M512 600h125v-850h-125v348c-26 -62 -108 -105 -190 -105c-174 0 -287 122 -287 306c0 185 113 307 287 307c83 0 165 -43 190 -104v98zM160 299c0 -109 72 -181 177 -181c102 0 175 75 175 182c1 108 -71 181 -175 181c-105 0 -177 -72 -177 -182z" />
    <glyph glyph-name="r" unicode="r" horiz-adv-x="425" 
d="M394 607v-125c-142 1 -222 -69 -222 -195v-287h-125v600h125v-111c46 87 139 118 222 118z" />
    <glyph glyph-name="s" unicode="s" horiz-adv-x="535" 
d="M38 196h119c2 -53 53 -95 115 -96c57 0 95 25 95 67c0 50 -44 71 -124 93c-90 26 -186 57 -186 175c0 108 93 172 213 172s203 -74 210 -186h-112c-5 45 -46 80 -99 80c-49 0 -87 -26 -87 -65c-1 -50 61 -65 105 -76c90 -23 205 -51 205 -192c0 -101 -95 -174 -224 -174
c-113 0 -228 75 -230 202z" />
    <glyph glyph-name="t" unicode="t" horiz-adv-x="418" 
d="M152 727h95v-127h130v-118h-130v-269c0 -62 28 -89 90 -89h40v-124h-52c-143 0 -203 59 -203 206v276h-89v118h89z" />
    <glyph glyph-name="u" unicode="u" 
d="M167 299c0 -110 56 -181 144 -181c82 0 141 77 141 182v300h125v-600h-125v98c-22 -61 -88 -105 -162 -105c-153 0 -248 122 -248 306v301h125v-301z" />
    <glyph glyph-name="v" unicode="v" horiz-adv-x="623" 
d="M377 0h-133l-232 600h133l166 -428l166 428h133z" />
    <glyph glyph-name="w" unicode="w" horiz-adv-x="909" 
d="M332 0h-130l-188 600h131l122 -391l122 391h130l122 -391l122 391h131l-187 -600h-131l-122 391z" />
    <glyph glyph-name="x" unicode="x" horiz-adv-x="594" 
d="M15 0l207 300l-207 300h150l133 -191l132 191h150l-207 -300l207 -300h-150l-132 191l-133 -191h-150z" />
    <glyph glyph-name="y" unicode="y" horiz-adv-x="622" 
d="M610 600l-256 -660c-47 -121 -70 -177 -202 -177h-41v123h30c40 0 65 14 85 66l18 48l-232 600h133l166 -428l166 428h133z" />
    <glyph glyph-name="z" unicode="z" horiz-adv-x="539" 
d="M36 0v93l287 385h-280v122h452v-98l-281 -380h287v-122h-465z" />
    <glyph glyph-name="braceleft" unicode="{" horiz-adv-x="480" 
d="M145 369c60 0 108 -52 108 -127v-145c0 -128 32 -173 125 -173h45v-123h-45c-180 0 -250 83 -250 293v148c0 44 -29 65 -74 70v114c45 4 74 28 74 75v143c0 210 70 293 250 293h45v-123h-45c-93 0 -125 -44 -125 -173v-140c0 -77 -48 -132 -108 -132z" />
    <glyph glyph-name="bar" unicode="|" horiz-adv-x="288" 
d="M207 -152h-125v1052h125v-1052z" />
    <glyph glyph-name="braceright" unicode="}" horiz-adv-x="480" 
d="M333 369c-61 0 -109 55 -109 132v140c0 129 -31 173 -125 173h-45v123h45c181 0 250 -83 250 -293v-143c0 -47 30 -71 74 -75v-114c-45 -5 -74 -26 -74 -70v-148c0 -210 -69 -293 -250 -293h-45v123h45c94 0 125 45 125 173v145c0 75 49 127 109 127z" />
    <glyph glyph-name="asciitilde" unicode="~" horiz-adv-x="546" 
d="M110 283h-80c9 106 62 174 135 174c97 0 141 -74 211 -74c32 0 52 26 57 74h79c-3 -104 -58 -174 -136 -174c-104 0 -135 74 -206 74c-28 0 -54 -31 -60 -74z" />
    <glyph glyph-name="exclamdown" unicode="&#xa1;" horiz-adv-x="244" 
d="M42 535c0 44 29 73 73 73s72 -29 72 -73s-28 -72 -72 -72s-73 28 -73 72zM61 370h106l10 -618h-126z" />
    <glyph glyph-name="cent" unicode="&#xa2;" horiz-adv-x="667" 
d="M332 483c-99 0 -166 -72 -166 -181c0 -110 67 -182 166 -182c73 0 130 40 155 107h132c-27 -123 -109 -206 -226 -227v-152h-125v153c-138 26 -227 140 -227 301c0 160 89 273 227 300v149h125v-148c116 -21 199 -103 226 -226h-132c-27 67 -82 106 -155 106z" />
    <glyph glyph-name="sterling" unicode="&#xa3;" horiz-adv-x="667" 
d="M46 118c53 15 86 70 86 144v106h-88v118h88v165c0 148 63 206 214 206h231v-123h-225c-66 0 -95 -28 -95 -90v-158h256v-118l-256 3v-109c0 -59 -19 -108 -52 -144h410v-118h-569v118z" />
    <glyph glyph-name="currency" unicode="&#xa4;" horiz-adv-x="739" 
d="M74 417c0 61 16 116 44 163l-69 69l88 88l66 -66c47 33 105 52 169 52c63 0 120 -19 168 -51l67 67l88 -89l-70 -70c28 -46 44 -102 44 -163c0 -62 -17 -119 -45 -166l71 -71l-88 -89l-69 69c-47 -32 -104 -50 -166 -50c-63 0 -120 18 -167 50l-68 -68l-88 88l70 71
c-29 47 -45 104 -45 166zM372 598c-98 0 -173 -78 -173 -181c0 -104 75 -182 173 -182s172 78 172 182c0 103 -74 181 -172 181z" />
    <glyph glyph-name="yen" unicode="&#xa5;" horiz-adv-x="741" 
d="M149 345v123h93l-233 382h144l217 -379l216 379h145l-233 -382h90v-123h-156v-91h156v-123h-156v-131h-125v131h-158v123h158v91h-158z" />
    <glyph glyph-name="brokenbar" unicode="&#xa6;" horiz-adv-x="290" 
d="M205 423h-125v477h125v-477zM205 -152h-125v477h125v-477z" />
    <glyph glyph-name="section" unicode="&#xa7;" horiz-adv-x="622" 
d="M39 -7h113c5 -77 78 -130 160 -130c83 0 152 40 153 112c1 76 -64 102 -145 121c-117 28 -259 48 -259 216c0 75 30 132 78 170c-46 30 -78 76 -78 156c1 145 113 212 248 212c131 0 249 -69 252 -214h-113c-6 72 -67 106 -139 106c-74 0 -134 -35 -135 -102
s58 -85 134 -104c11 -2 21 -5 32 -7c114 -27 239 -70 238 -227c0 -71 -34 -123 -86 -157c51 -34 86 -85 86 -169c-1 -135 -120 -220 -265 -221c-142 0 -271 87 -274 238zM326 206c77 2 138 28 139 96c1 76 -64 100 -145 121c-7 1 -15 3 -23 5c-69 -5 -122 -51 -123 -114
c-1 -73 67 -88 152 -108z" />
    <glyph glyph-name="dieresis" unicode="&#xa8;" horiz-adv-x="410" 
d="M20 776c0 44 29 72 73 72s72 -28 72 -72s-28 -73 -72 -73s-73 29 -73 73zM244 776c0 44 28 72 73 72c43 0 72 -28 72 -72s-29 -73 -72 -73c-45 0 -73 29 -73 73z" />
    <glyph glyph-name="copyright" unicode="&#xa9;" horiz-adv-x="952" 
d="M43 425c0 241 190 430 431 430s431 -189 431 -430s-189 -431 -431 -431c-241 0 -431 190 -431 431zM474 756c-186 0 -332 -144 -332 -331c0 -186 146 -332 332 -332c188 0 332 146 332 332c0 187 -145 331 -332 331zM473 547c-69 0 -116 -51 -116 -128
c0 -76 47 -127 116 -127c52 0 90 28 108 75h95c-21 -103 -97 -165 -203 -165c-123 0 -206 86 -206 217c0 132 83 218 206 218c106 0 182 -63 203 -164h-95c-18 46 -56 74 -108 74z" />
    <glyph glyph-name="ordfeminine" unicode="&#xaa;" horiz-adv-x="329" 
d="M233 563v42c-12 -26 -51 -45 -86 -45c-69 0 -114 38 -114 94c0 58 37 83 120 83h80v3c0 40 -25 63 -64 63c-30 0 -56 -16 -60 -38h-66c4 55 57 96 124 96c78 0 129 -47 129 -121v-177h-63zM97 659c0 -24 22 -38 58 -38c44 0 78 26 78 63v11h-78c-40 0 -58 -11 -58 -36z
" />
    <glyph glyph-name="guillemotleft" unicode="&#xab;" horiz-adv-x="829" 
d="M49 359l224 241h171l-224 -241l224 -241h-171zM384 359l224 241h171l-224 -241l224 -241h-171z" />
    <glyph glyph-name="logicalnot" unicode="&#xac;" horiz-adv-x="623" 
d="M52 475v125h509v-318h-125v193h-384z" />
    <glyph glyph-name="registered" unicode="&#xae;" horiz-adv-x="511" 
d="M35 636c0 123 97 219 220 219c122 0 219 -96 219 -219s-96 -220 -219 -220s-220 97 -220 220zM255 816c-101 0 -180 -79 -180 -180s79 -180 180 -180c102 0 180 79 180 180s-79 180 -180 180zM212 516h-38v244h87c49 0 83 -29 83 -79c0 -35 -18 -61 -47 -73l58 -92h-46
l-53 86h-44v-86zM261 722h-49v-82h51c24 0 42 17 42 41c0 25 -17 41 -44 41z" />
    <glyph glyph-name="macron" unicode="&#xaf;" horiz-adv-x="533" 
d="M45 704v125h444v-125h-444z" />
    <glyph glyph-name="degree" unicode="&#xb0;" horiz-adv-x="391" 
d="M28 828c0 98 73 173 168 173s168 -75 168 -173s-73 -173 -168 -173s-168 75 -168 173zM196 906c-42 0 -75 -33 -75 -78s32 -79 75 -79s75 34 75 79s-32 78 -75 78z" />
    <glyph glyph-name="plusminus" unicode="&#xb1;" horiz-adv-x="534" 
d="M45 474v123h158v158h124v-158h157v-123h-157v-158h-124v158h-158zM45 125v123h439v-123h-439z" />
    <glyph glyph-name="twosuperior" unicode="&#xb2;" horiz-adv-x="339" 
d="M27 432v51c0 94 60 130 124 163c78 40 95 59 95 94c0 32 -27 54 -71 54s-72 -22 -75 -60h-64c1 83 66 121 139 121c76 0 135 -38 135 -116c0 -97 -108 -133 -146 -153c-47 -23 -74 -55 -74 -91h223v-63h-286z" />
    <glyph glyph-name="threesuperior" unicode="&#xb3;" horiz-adv-x="348" 
d="M136 684h41c45 0 71 22 71 56c0 33 -24 53 -67 53c-44 0 -69 -22 -72 -57h-70c0 87 69 123 142 123c78 0 139 -38 139 -121c0 -34 -13 -64 -37 -85c30 -21 46 -53 46 -92c0 -88 -65 -129 -148 -129c-79 0 -151 38 -151 123h70c2 -35 32 -56 81 -56s78 23 78 61
c0 36 -31 57 -82 57h-41v67z" />
    <glyph glyph-name="acute" unicode="&#xb4;" horiz-adv-x="234" 
d="M123 653h-99l53 197h139z" />
    <glyph glyph-name="paragraph" unicode="&#xb6;" horiz-adv-x="819" 
d="M628 -128v853h-156v-853h-125v440c-173 0 -294 113 -294 270c0 155 110 268 294 268h406v-978h-125z" />
    <glyph glyph-name="periodcentered" unicode="&#xb7;" horiz-adv-x="253" 
d="M52 446c0 44 28 72 73 72c43 0 72 -28 72 -72s-29 -73 -72 -73c-45 0 -73 29 -73 73z" />
    <glyph glyph-name="cedilla" unicode="&#xb8;" horiz-adv-x="146" 
d="M-40 -167l61 181h101l-36 -181h-126z" />
    <glyph glyph-name="onesuperior" unicode="&#xb9;" horiz-adv-x="220" 
d="M117 432v349l-91 -35v65l102 39h52v-418h-63z" />
    <glyph glyph-name="ordmasculine" unicode="&#xba;" horiz-adv-x="397" 
d="M27 643c0 125 68 212 172 212s171 -87 171 -212c0 -124 -67 -211 -171 -211s-172 87 -172 211zM199 793c-67 0 -109 -62 -109 -150c0 -87 42 -149 109 -149s109 62 109 149c0 89 -42 150 -109 150z" />
    <glyph glyph-name="guillemotright" unicode="&#xbb;" horiz-adv-x="824" 
d="M779 359l-224 -241h-171l224 241l-224 241h171zM444 359l-224 -241h-171l224 241l-224 241h171z" />
    <glyph glyph-name="onequarter" unicode="&#xbc;" horiz-adv-x="870" 
d="M282 0h-78l314 850h78zM134 432v349l-91 -35v65l102 39h51v-418h-62zM498 87v63l208 268h63v-268h50v-63h-50v-87h-63v87h-208zM577 150h129v169z" />
    <glyph glyph-name="questiondown" unicode="&#xbf;" horiz-adv-x="625" 
d="M426 535c0 -44 -28 -73 -73 -73c-44 0 -72 29 -72 73c0 43 28 73 72 73c45 0 73 -30 73 -73zM291 370h125v-45c0 -132 -70 -183 -149 -216c-67 -29 -107 -51 -107 -126c0 -73 68 -117 153 -117c82 0 149 39 156 120h125c-3 -164 -134 -240 -281 -240
c-154 0 -278 79 -278 239c-1 161 88 189 176 227c52 23 80 59 80 114v44z" />
    <glyph glyph-name="Agrave" unicode="&#xc0;" horiz-adv-x="826" 
d="M361 903l-93 197h139l53 -197h-99zM10 0l338 850h134l338 -850h-134l-86 216h-370l-86 -216h-134zM278 337h274l-137 345z" />
    <glyph glyph-name="Aacute" unicode="&#xc1;" horiz-adv-x="826" 
d="M463 903h-99l53 197h139zM10 0l338 850h134l338 -850h-134l-86 216h-370l-86 -216h-134zM278 337h274l-137 345z" />
    <glyph glyph-name="Acircumflex" unicode="&#xc2;" horiz-adv-x="826" 
d="M481 1100l152 -198h-136l-84 109l-84 -109h-136l152 198h136zM10 0l338 850h134l338 -850h-134l-86 216h-370l-86 -216h-134zM278 337h274l-137 345z" />
    <glyph glyph-name="Atilde" unicode="&#xc3;" horiz-adv-x="826" 
d="M259 926h-80c8 106 60 174 131 174c93 0 141 -73 203 -73c31 0 49 25 55 73h79c-3 -104 -56 -174 -133 -174c-99 0 -131 74 -199 74c-26 0 -50 -31 -56 -74zM10 0l338 850h134l338 -850h-134l-86 216h-370l-86 -216h-134zM278 337h274l-137 345z" />
    <glyph glyph-name="Adieresis" unicode="&#xc4;" horiz-adv-x="826" 
d="M229 1026c0 44 28 72 73 72c44 0 72 -28 72 -72s-28 -73 -72 -73c-45 0 -73 29 -73 73zM452 1026c0 44 29 72 73 72s72 -28 72 -72s-28 -73 -72 -73s-73 29 -73 73zM10 0l338 850h134l338 -850h-134l-86 216h-370l-86 -216h-134zM278 337h274l-137 345z" />
    <glyph glyph-name="Aring" unicode="&#xc5;" horiz-adv-x="826" 
d="M10 0l332 836c-20 18 -32 45 -32 77c0 62 43 103 105 103c61 0 104 -41 104 -103c0 -32 -12 -58 -32 -77l333 -836h-134l-86 216h-370l-86 -216h-134zM415 963c-29 0 -52 -20 -52 -50s23 -51 52 -51s51 22 51 51c0 30 -22 50 -51 50zM278 337h274l-137 345z" />
    <glyph glyph-name="AE" unicode="&#xc6;" horiz-adv-x="1190" 
d="M1148 725h-381v-237h372v-125h-372v-238h390v-125h-515v216h-321l-156 -216h-150l618 850h515v-125zM410 337h232v319z" />
    <glyph glyph-name="Ccedilla" unicode="&#xc7;" horiz-adv-x="842" 
d="M665 556c-42 105 -129 168 -241 168c-157 0 -261 -119 -261 -299c0 -179 105 -299 261 -299c114 0 202 64 241 168h135c-38 -159 -149 -266 -301 -293l-33 -168h-126l55 163c-216 14 -358 183 -358 429c0 258 155 430 388 430c190 0 328 -115 375 -299h-135z" />
    <glyph glyph-name="Egrave" unicode="&#xc8;" horiz-adv-x="594" 
d="M274 903l-93 197h139l53 -197h-99zM552 725h-381v-237h372v-125h-372v-238h390v-125h-515v850h506v-125z" />
    <glyph glyph-name="Eacute" unicode="&#xc9;" horiz-adv-x="594" 
d="M348 903h-99l53 197h138zM552 725h-381v-237h372v-125h-372v-238h390v-125h-515v850h506v-125z" />
    <glyph glyph-name="Ecircumflex" unicode="&#xca;" horiz-adv-x="594" 
d="M365 1100l152 -198h-136l-84 109l-84 -109h-136l152 198h136zM552 725h-381v-237h372v-125h-372v-238h390v-125h-515v850h506v-125z" />
    <glyph glyph-name="Edieresis" unicode="&#xcb;" horiz-adv-x="594" 
d="M113 1026c0 44 28 72 73 72c44 0 72 -28 72 -72s-28 -73 -72 -73c-45 0 -73 29 -73 73zM336 1026c0 44 29 72 73 72s72 -28 72 -72s-28 -73 -72 -73s-73 29 -73 73zM552 725h-381v-237h372v-125h-372v-238h390v-125h-515v850h506v-125z" />
    <glyph glyph-name="Igrave" unicode="&#xcc;" horiz-adv-x="227" 
d="M65 903l-93 197h139l53 -197h-99zM177 0h-125v850h125v-850z" />
    <glyph glyph-name="Iacute" unicode="&#xcd;" horiz-adv-x="227" 
d="M161 903h-99l53 197h138zM177 0h-125v850h125v-850z" />
    <glyph glyph-name="Icircumflex" unicode="&#xce;" horiz-adv-x="227" 
d="M181 1100l152 -198h-136l-84 109l-84 -109h-136l152 198h136zM177 0h-125v850h125v-850z" />
    <glyph glyph-name="Idieresis" unicode="&#xcf;" horiz-adv-x="227" 
d="M-71 1026c0 44 28 72 73 72c44 0 72 -28 72 -72s-28 -73 -72 -73c-45 0 -73 29 -73 73zM153 1026c0 44 28 72 73 72c43 0 72 -28 72 -72s-29 -73 -72 -73c-45 0 -73 29 -73 73zM177 0h-125v850h125v-850z" />
    <glyph glyph-name="Eth" unicode="&#xd0;" horiz-adv-x="796" 
d="M349 0h-271v373h-53v124h53v353h262c268 0 419 -153 419 -425c0 -270 -149 -425 -410 -425zM340 725h-137v-228h200v-124h-200v-248h146c179 0 284 111 284 300c0 192 -105 300 -293 300z" />
    <glyph glyph-name="Ntilde" unicode="&#xd1;" horiz-adv-x="792" 
d="M235 926h-80c9 106 61 174 131 174c94 0 141 -73 204 -73c31 0 49 25 55 73h79c-3 -104 -57 -174 -133 -174c-99 0 -131 74 -199 74c-27 0 -51 -31 -57 -74zM170 0h-125v850h125l449 -635v635h125v-812l1 -1h-1v-37h-125l-449 634v-634z" />
    <glyph glyph-name="Ograve" unicode="&#xd2;" horiz-adv-x="854" 
d="M380 903l-92 197h138l53 -197h-99zM38 425c0 252 162 430 392 430s391 -178 391 -430c0 -253 -161 -431 -391 -431s-392 178 -392 431zM430 732c-157 0 -267 -127 -267 -307c0 -182 110 -308 267 -308s266 126 266 308s-108 307 -266 307z" />
    <glyph glyph-name="Oacute" unicode="&#xd3;" horiz-adv-x="854" 
d="M467 903h-99l53 197h138zM38 425c0 252 162 430 392 430s391 -178 391 -430c0 -253 -161 -431 -391 -431s-392 178 -392 431zM430 732c-157 0 -267 -127 -267 -307c0 -182 110 -308 267 -308s266 126 266 308s-108 307 -266 307z" />
    <glyph glyph-name="Ocircumflex" unicode="&#xd4;" horiz-adv-x="854" 
d="M495 1100l152 -198h-136l-84 109l-84 -109h-136l152 198h136zM38 425c0 252 162 430 392 430s391 -178 391 -430c0 -253 -161 -431 -391 -431s-392 178 -392 431zM430 732c-157 0 -267 -127 -267 -307c0 -182 110 -308 267 -308s266 126 266 308s-108 307 -266 307z" />
    <glyph glyph-name="Otilde" unicode="&#xd5;" horiz-adv-x="854" 
d="M273 926h-80c9 106 61 174 131 174c94 0 141 -73 204 -73c30 0 49 25 54 73h80c-3 -104 -57 -174 -133 -174c-99 0 -132 74 -199 74c-27 0 -51 -31 -57 -74zM38 425c0 252 162 430 392 430s391 -178 391 -430c0 -253 -161 -431 -391 -431s-392 178 -392 431zM430 732
c-157 0 -267 -127 -267 -307c0 -182 110 -308 267 -308s266 126 266 308s-108 307 -266 307z" />
    <glyph glyph-name="Odieresis" unicode="&#xd6;" horiz-adv-x="854" 
d="M244 1026c0 44 28 72 73 72c43 0 72 -28 72 -72s-29 -73 -72 -73c-45 0 -73 29 -73 73zM467 1026c0 44 28 72 73 72c44 0 72 -28 72 -72s-28 -73 -72 -73c-45 0 -73 29 -73 73zM38 425c0 252 162 430 392 430s391 -178 391 -430c0 -253 -161 -431 -391 -431
s-392 178 -392 431zM430 732c-157 0 -267 -127 -267 -307c0 -182 110 -308 267 -308s266 126 266 308s-108 307 -266 307z" />
    <glyph glyph-name="multiply" unicode="&#xd7;" horiz-adv-x="500" 
d="M139 187l-87 87l111 112l-111 111l87 88l112 -112l111 111l87 -87l-111 -111l111 -111l-87 -88l-111 111z" />
    <glyph glyph-name="Oslash" unicode="&#xd8;" horiz-adv-x="854" 
d="M38 425c0 252 162 430 392 430c29 0 57 -3 84 -8l20 53h125l-35 -95c122 -70 197 -207 197 -380c0 -253 -161 -431 -391 -431c-36 0 -70 4 -102 12l-28 -76h-125l45 123c-112 73 -182 206 -182 372zM430 732c-157 0 -267 -127 -267 -307c0 -108 39 -196 102 -250l206 554
c-14 2 -27 3 -41 3zM580 686l-209 -563c19 -4 38 -6 59 -6c157 0 266 126 266 308c0 115 -44 208 -116 261z" />
    <glyph glyph-name="Ugrave" unicode="&#xd9;" horiz-adv-x="799" 
d="M348 903l-92 197h138l53 -197h-99zM49 425v425h125v-425c0 -213 68 -308 221 -308c152 0 220 95 220 308v425h125v-425c0 -281 -120 -431 -345 -431c-226 0 -346 149 -346 431z" />
    <glyph glyph-name="Uacute" unicode="&#xda;" horiz-adv-x="799" 
d="M431 903h-99l53 197h139zM49 425v425h125v-425c0 -213 68 -308 221 -308c152 0 220 95 220 308v425h125v-425c0 -281 -120 -431 -345 -431c-226 0 -346 149 -346 431z" />
    <glyph glyph-name="Ucircumflex" unicode="&#xdb;" horiz-adv-x="799" 
d="M468 1100l152 -198h-136l-84 109l-84 -109h-136l152 198h136zM49 425v425h125v-425c0 -213 68 -308 221 -308c152 0 220 95 220 308v425h125v-425c0 -281 -120 -431 -345 -431c-226 0 -346 149 -346 431z" />
    <glyph glyph-name="Udieresis" unicode="&#xdc;" horiz-adv-x="799" 
d="M215 1026c0 44 29 72 73 72s72 -28 72 -72s-28 -73 -72 -73s-73 29 -73 73zM439 1026c0 44 28 72 73 72c43 0 72 -28 72 -72s-29 -73 -72 -73c-45 0 -73 29 -73 73zM49 425v425h125v-425c0 -213 68 -308 221 -308c152 0 220 95 220 308v425h125v-425
c0 -281 -120 -431 -345 -431c-226 0 -346 149 -346 431z" />
    <glyph glyph-name="Yacute" unicode="&#xdd;" horiz-adv-x="741" 
d="M414 903h-99l53 197h138zM432 361v-361h-125v361l-298 489h144l217 -379l216 379h145z" />
    <glyph glyph-name="Thorn" unicode="&#xde;" horiz-adv-x="696" 
d="M172 850v-222c26 61 107 104 191 104c173 0 286 -122 286 -307c0 -184 -112 -306 -286 -306c-83 0 -165 43 -191 105v-224h-125v850h125zM524 425c0 110 -72 182 -177 182c-104 0 -176 -73 -175 -181c0 -107 74 -182 176 -182c105 0 176 72 176 181z" />
    <glyph glyph-name="germandbls" unicode="&#xdf;" horiz-adv-x="629" 
d="M55 567c0 221 114 283 239 283c139 0 230 -74 230 -186c0 -85 -47 -173 -127 -239c117 -22 192 -97 192 -201c0 -139 -93 -224 -248 -224h-62v118h57c83 0 132 44 132 116c0 71 -75 109 -185 109v113c25 29 102 98 109 146c20 67 -23 127 -96 127
c-71 0 -121 -53 -121 -162v-567h-120v567z" />
    <glyph glyph-name="agrave" unicode="&#xe0;" horiz-adv-x="704" 
d="M281 653l-93 197h139l53 -197h-99zM518 0v98c-26 -61 -107 -104 -191 -104c-173 0 -286 122 -286 307c0 184 112 306 286 306c83 0 165 -43 191 -105v98h125v-600h-125zM166 301c0 -110 72 -182 177 -182c104 0 176 73 175 181c0 107 -74 182 -176 182
c-105 0 -176 -72 -176 -181z" />
    <glyph glyph-name="aacute" unicode="&#xe1;" horiz-adv-x="704" 
d="M381 653h-99l53 197h139zM518 0v98c-26 -61 -107 -104 -191 -104c-173 0 -286 122 -286 307c0 184 112 306 286 306c83 0 165 -43 191 -105v98h125v-600h-125zM166 301c0 -110 72 -182 177 -182c104 0 176 73 175 181c0 107 -74 182 -176 182c-105 0 -176 -72 -176 -181z
" />
    <glyph glyph-name="acircumflex" unicode="&#xe2;" horiz-adv-x="704" 
d="M420 850l152 -198h-136l-84 109l-84 -109h-136l152 198h136zM518 0v98c-26 -61 -107 -104 -191 -104c-173 0 -286 122 -286 307c0 184 112 306 286 306c83 0 165 -43 191 -105v98h125v-600h-125zM166 301c0 -110 72 -182 177 -182c104 0 176 73 175 181
c0 107 -74 182 -176 182c-105 0 -176 -72 -176 -181z" />
    <glyph glyph-name="atilde" unicode="&#xe3;" horiz-adv-x="704" 
d="M191 676h-80c8 106 60 174 131 174c93 0 141 -73 203 -73c31 0 49 25 55 73h79c-3 -104 -56 -174 -133 -174c-99 0 -131 74 -199 74c-26 0 -50 -31 -56 -74zM518 0v98c-26 -61 -107 -104 -191 -104c-173 0 -286 122 -286 307c0 184 112 306 286 306
c83 0 165 -43 191 -105v98h125v-600h-125zM166 301c0 -110 72 -182 177 -182c104 0 176 73 175 181c0 107 -74 182 -176 182c-105 0 -176 -72 -176 -181z" />
    <glyph glyph-name="adieresis" unicode="&#xe4;" horiz-adv-x="704" 
d="M168 776c0 44 28 72 73 72c44 0 72 -28 72 -72s-28 -73 -72 -73c-45 0 -73 29 -73 73zM391 776c0 44 29 72 73 72s72 -28 72 -72s-28 -73 -72 -73s-73 29 -73 73zM518 0v98c-26 -61 -107 -104 -191 -104c-173 0 -286 122 -286 307c0 184 112 306 286 306
c83 0 165 -43 191 -105v98h125v-600h-125zM166 301c0 -110 72 -182 177 -182c104 0 176 73 175 181c0 107 -74 182 -176 182c-105 0 -176 -72 -176 -181z" />
    <glyph glyph-name="aring" unicode="&#xe5;" horiz-adv-x="704" 
d="M229 749c0 62 43 103 105 103c61 0 104 -41 104 -103c0 -61 -43 -103 -104 -103c-62 0 -105 42 -105 103zM334 800c-29 0 -52 -21 -52 -51c0 -29 23 -50 52 -50s51 21 51 50c0 30 -22 51 -51 51zM518 0v98c-26 -61 -107 -104 -191 -104c-173 0 -286 122 -286 307
c0 184 112 306 286 306c83 0 165 -43 191 -105v98h125v-600h-125zM166 301c0 -110 72 -182 177 -182c104 0 176 73 175 181c0 107 -74 182 -176 182c-105 0 -176 -72 -176 -181z" />
    <glyph glyph-name="ae" unicode="&#xe6;" horiz-adv-x="1148" 
d="M518 0v98c-26 -61 -107 -104 -191 -104c-173 0 -286 122 -286 307c0 184 112 306 286 306c83 0 165 -43 191 -105v98h125v-45c46 33 104 52 167 52c165 0 292 -131 292 -303c0 -16 -1 -33 -4 -48h-451c16 -87 80 -144 164 -144c63 0 113 29 136 71h133
c-41 -112 -147 -189 -268 -189c-65 0 -122 18 -169 50v-44h-125zM647 347h326c-17 84 -80 142 -163 142s-146 -57 -163 -142zM166 301c0 -110 72 -182 177 -182c104 0 176 73 175 181c0 107 -74 182 -176 182c-105 0 -176 -72 -176 -181z" />
    <glyph glyph-name="ccedilla" unicode="&#xe7;" horiz-adv-x="667" 
d="M332 483c-99 0 -166 -72 -166 -181c0 -110 67 -182 166 -182c73 0 130 40 155 107h132c-27 -125 -112 -208 -231 -228l-33 -166h-126l56 165c-148 20 -244 136 -244 304c0 184 117 306 291 306c149 0 256 -88 287 -231h-132c-27 67 -82 106 -155 106z" />
    <glyph glyph-name="egrave" unicode="&#xe8;" horiz-adv-x="671" 
d="M294 653l-92 197h138l53 -197h-99zM470 184h133c-41 -112 -147 -189 -267 -189c-173 0 -295 127 -295 307c0 174 126 306 292 306c165 0 292 -131 292 -303c0 -16 -1 -33 -4 -48h-451c16 -87 80 -144 165 -144c62 0 112 29 135 71zM170 348h326c-16 84 -80 142 -163 142
s-146 -57 -163 -142z" />
    <glyph glyph-name="eacute" unicode="&#xe9;" horiz-adv-x="671" 
d="M381 653h-99l53 197h139zM470 184h133c-41 -112 -147 -189 -267 -189c-173 0 -295 127 -295 307c0 174 126 306 292 306c165 0 292 -131 292 -303c0 -16 -1 -33 -4 -48h-451c16 -87 80 -144 165 -144c62 0 112 29 135 71zM170 348h326c-16 84 -80 142 -163 142
s-146 -57 -163 -142z" />
    <glyph glyph-name="ecircumflex" unicode="&#xea;" horiz-adv-x="671" 
d="M404 850l152 -198h-136l-84 109l-84 -109h-136l152 198h136zM470 184h133c-41 -112 -147 -189 -267 -189c-173 0 -295 127 -295 307c0 174 126 306 292 306c165 0 292 -131 292 -303c0 -16 -1 -33 -4 -48h-451c16 -87 80 -144 165 -144c62 0 112 29 135 71zM170 348h326
c-16 84 -80 142 -163 142s-146 -57 -163 -142z" />
    <glyph glyph-name="edieresis" unicode="&#xeb;" horiz-adv-x="671" 
d="M152 776c0 44 28 72 73 72c44 0 72 -28 72 -72s-28 -73 -72 -73c-45 0 -73 29 -73 73zM375 776c0 44 28 72 73 72c44 0 72 -28 72 -72s-28 -73 -72 -73c-45 0 -73 29 -73 73zM470 184h133c-41 -112 -147 -189 -267 -189c-173 0 -295 127 -295 307c0 174 126 306 292 306
c165 0 292 -131 292 -303c0 -16 -1 -33 -4 -48h-451c16 -87 80 -144 165 -144c62 0 112 29 135 71zM170 348h326c-16 84 -80 142 -163 142s-146 -57 -163 -142z" />
    <glyph glyph-name="igrave" unicode="&#xec;" horiz-adv-x="234" 
d="M67 653l-93 197h139l53 -197h-99zM180 0h-125v600h125v-600z" />
    <glyph glyph-name="iacute" unicode="&#xed;" horiz-adv-x="234" 
d="M162 653h-99l53 197h139zM180 0h-125v600h125v-600z" />
    <glyph glyph-name="icircumflex" unicode="&#xee;" horiz-adv-x="234" 
d="M185 850l152 -198h-136l-84 109l-84 -109h-136l152 198h136zM180 0h-125v600h125v-600z" />
    <glyph glyph-name="idieresis" unicode="&#xef;" horiz-adv-x="234" 
d="M-68 776c0 44 29 72 74 72c43 0 72 -28 72 -72s-29 -73 -72 -73c-45 0 -74 29 -74 73zM156 776c0 44 28 72 73 72c44 0 72 -28 72 -72s-28 -73 -72 -73c-45 0 -73 29 -73 73zM180 0h-125v600h125v-600z" />
    <glyph glyph-name="eth" unicode="&#xf0;" horiz-adv-x="691" 
d="M645 292c0 -167 -130 -298 -300 -298c-168 0 -297 131 -297 298c0 168 131 298 299 297l-61 85l-129 -67l-37 74l117 60l-78 109h144l40 -54l111 57l38 -72l-99 -51l188 -253c40 -50 64 -114 64 -185zM345 464c-98 0 -172 -76 -172 -172s75 -173 172 -173
c99 0 175 76 175 173c0 96 -76 172 -175 172z" />
    <glyph glyph-name="ntilde" unicode="&#xf1;" horiz-adv-x="633" 
d="M156 676h-80c9 106 61 174 131 174c94 0 141 -73 204 -73c30 0 49 25 54 73h80c-3 -104 -57 -174 -133 -174c-99 0 -132 74 -199 74c-27 0 -51 -31 -57 -74zM460 301c0 110 -57 181 -145 181c-81 0 -141 -76 -141 -182v-300h-125v600h125v-98c23 61 89 105 163 105
c152 0 248 -121 248 -306v-301h-125v301z" />
    <glyph glyph-name="ograve" unicode="&#xf2;" horiz-adv-x="657" 
d="M286 653l-93 197h139l53 -197h-99zM35 301c0 173 129 306 295 306s294 -133 294 -306c0 -174 -128 -307 -294 -307s-295 133 -295 307zM330 482c-96 0 -170 -78 -170 -181c0 -104 74 -182 170 -182s169 78 169 182c0 103 -73 181 -169 181z" />
    <glyph glyph-name="oacute" unicode="&#xf3;" horiz-adv-x="657" 
d="M376 653h-99l53 197h139zM35 301c0 173 129 306 295 306s294 -133 294 -306c0 -174 -128 -307 -294 -307s-295 133 -295 307zM330 482c-96 0 -170 -78 -170 -181c0 -104 74 -182 170 -182s169 78 169 182c0 103 -73 181 -169 181z" />
    <glyph glyph-name="ocircumflex" unicode="&#xf4;" horiz-adv-x="657" 
d="M398 850l152 -198h-137l-84 109l-83 -109h-137l152 198h137zM35 301c0 173 129 306 295 306s294 -133 294 -306c0 -174 -128 -307 -294 -307s-295 133 -295 307zM330 482c-96 0 -170 -78 -170 -181c0 -104 74 -182 170 -182s169 78 169 182c0 103 -73 181 -169 181z" />
    <glyph glyph-name="otilde" unicode="&#xf5;" horiz-adv-x="657" 
d="M175 676h-80c9 106 61 174 131 174c94 0 141 -73 204 -73c30 0 49 25 54 73h80c-3 -104 -57 -174 -133 -174c-99 0 -132 74 -199 74c-27 0 -51 -31 -57 -74zM35 301c0 173 129 306 295 306s294 -133 294 -306c0 -174 -128 -307 -294 -307s-295 133 -295 307zM330 482
c-96 0 -170 -78 -170 -181c0 -104 74 -182 170 -182s169 78 169 182c0 103 -73 181 -169 181z" />
    <glyph glyph-name="odieresis" unicode="&#xf6;" horiz-adv-x="657" 
d="M145 776c0 44 28 72 73 72c44 0 72 -28 72 -72s-28 -73 -72 -73c-45 0 -73 29 -73 73zM368 776c0 44 28 72 73 72c44 0 72 -28 72 -72s-28 -73 -72 -73c-45 0 -73 29 -73 73zM35 301c0 173 129 306 295 306s294 -133 294 -306c0 -174 -128 -307 -294 -307
s-295 133 -295 307zM330 482c-96 0 -170 -78 -170 -181c0 -104 74 -182 170 -182s169 78 169 182c0 103 -73 181 -169 181z" />
    <glyph glyph-name="divide" unicode="&#xf7;" horiz-adv-x="572" 
d="M212 599c0 43 28 72 73 72c43 0 72 -29 72 -72c0 -44 -29 -73 -72 -73c-45 0 -73 29 -73 73zM45 324v123h478v-123h-478zM212 174c0 44 28 72 73 72c43 0 72 -28 72 -72s-29 -73 -72 -73c-45 0 -73 29 -73 73z" />
    <glyph glyph-name="oslash" unicode="&#xf8;" horiz-adv-x="657" 
d="M35 301c0 173 129 306 295 306c16 0 32 -1 47 -4l26 69h125l-41 -110c83 -54 137 -149 137 -261c0 -174 -128 -307 -294 -307c-18 0 -35 2 -52 4l-25 -68h-125l41 111c-82 54 -134 149 -134 260zM332 482c-102 1 -172 -83 -172 -181c0 -55 21 -103 55 -136zM442 439
l-119 -320c106 0 176 78 176 182c0 56 -22 105 -57 138z" />
    <glyph glyph-name="ugrave" unicode="&#xf9;" 
d="M266 653l-92 197h138l53 -197h-99zM167 299c0 -110 56 -181 144 -181c82 0 141 77 141 182v300h125v-600h-125v98c-22 -61 -88 -105 -162 -105c-153 0 -248 122 -248 306v301h125v-301z" />
    <glyph glyph-name="uacute" unicode="&#xfa;" 
d="M362 653h-99l53 197h139zM167 299c0 -110 56 -181 144 -181c82 0 141 77 141 182v300h125v-600h-125v98c-22 -61 -88 -105 -162 -105c-153 0 -248 122 -248 306v301h125v-301z" />
    <glyph glyph-name="ucircumflex" unicode="&#xfb;" 
d="M379 850l152 -198h-136l-84 109l-84 -109h-136l152 198h136zM167 299c0 -110 56 -181 144 -181c82 0 141 77 141 182v300h125v-600h-125v98c-22 -61 -88 -105 -162 -105c-153 0 -248 122 -248 306v301h125v-301z" />
    <glyph glyph-name="udieresis" unicode="&#xfc;" 
d="M127 776c0 44 28 72 73 72c43 0 72 -28 72 -72s-29 -73 -72 -73c-45 0 -73 29 -73 73zM350 776c0 44 28 72 73 72c44 0 72 -28 72 -72s-28 -73 -72 -73c-45 0 -73 29 -73 73zM167 299c0 -110 56 -181 144 -181c82 0 141 77 141 182v300h125v-600h-125v98
c-22 -61 -88 -105 -162 -105c-153 0 -248 122 -248 306v301h125v-301z" />
    <glyph glyph-name="yacute" unicode="&#xfd;" horiz-adv-x="622" 
d="M352 653h-99l53 197h139zM610 600l-256 -660c-47 -121 -70 -177 -202 -177h-41v123h30c40 0 65 14 85 66l18 48l-232 600h133l166 -428l166 428h133z" />
    <glyph glyph-name="thorn" unicode="&#xfe;" horiz-adv-x="695" 
d="M172 850v-347c26 61 107 104 191 104c173 0 286 -122 286 -307c0 -184 -112 -307 -286 -307c-83 0 -165 44 -191 106v-349h-125v1100h125zM524 300c0 110 -72 182 -177 182c-104 0 -176 -73 -175 -181c0 -107 74 -182 176 -182c105 0 176 72 176 181z" />
    <glyph glyph-name="ydieresis" unicode="&#xff;" horiz-adv-x="622" 
d="M127 776c0 44 28 72 73 72c44 0 72 -28 72 -72s-28 -73 -72 -73c-45 0 -73 29 -73 73zM350 776c0 44 29 72 73 72s72 -28 72 -72s-28 -73 -72 -73s-73 29 -73 73zM610 600l-256 -660c-47 -121 -70 -177 -202 -177h-41v123h30c40 0 65 14 85 66l18 48l-232 600h133
l166 -428l166 428h133z" />
    <glyph glyph-name="Amacron" unicode="&#x100;" horiz-adv-x="826" 
d="M191 954v125h444v-125h-444zM10 0l338 850h134l338 -850h-134l-86 216h-370l-86 -216h-134zM278 337h274l-137 345z" />
    <glyph glyph-name="amacron" unicode="&#x101;" horiz-adv-x="704" 
d="M130 704v125h444v-125h-444zM518 0v98c-26 -61 -107 -104 -191 -104c-173 0 -286 122 -286 307c0 184 112 306 286 306c83 0 165 -43 191 -105v98h125v-600h-125zM166 301c0 -110 72 -182 177 -182c104 0 176 73 175 181c0 107 -74 182 -176 182
c-105 0 -176 -72 -176 -181z" />
    <glyph glyph-name="Abreve" unicode="&#x102;" horiz-adv-x="826" 
d="M231 1100h100c2 -48 35 -80 82 -80s80 32 82 80h100c-2 -108 -75 -180 -182 -180c-106 0 -180 72 -182 180zM10 0l338 850h134l338 -850h-134l-86 216h-370l-86 -216h-134zM278 337h274l-137 345z" />
    <glyph glyph-name="abreve" unicode="&#x103;" horiz-adv-x="704" 
d="M170 850h100c2 -48 35 -80 82 -80s79 32 81 80h101c-2 -108 -76 -180 -182 -180c-107 0 -180 72 -182 180zM518 0v98c-26 -61 -107 -104 -191 -104c-173 0 -286 122 -286 307c0 184 112 306 286 306c83 0 165 -43 191 -105v98h125v-600h-125zM166 301
c0 -110 72 -182 177 -182c104 0 176 73 175 181c0 107 -74 182 -176 182c-105 0 -176 -72 -176 -181z" />
    <glyph glyph-name="Aogonek" unicode="&#x104;" horiz-adv-x="826" 
d="M10 0l338 850h134l338 -850h-23c-26 -26 -40 -54 -35 -81c5 -30 31 -50 70 -50v-82c-99 0 -149 37 -154 112c-3 43 14 76 53 101h-45l-86 216h-370l-86 -216h-134zM278 337h274l-137 345z" />
    <glyph glyph-name="aogonek" unicode="&#x105;" horiz-adv-x="704" 
d="M518 0v98c-26 -61 -107 -104 -191 -104c-173 0 -286 122 -286 307c0 184 112 306 286 306c83 0 165 -43 191 -105v98h125v-600h-23c-26 -26 -40 -54 -35 -81c5 -30 31 -50 70 -50v-82c-99 0 -149 37 -154 112c-3 43 14 76 53 101h-36zM166 301c0 -110 72 -182 177 -182
c104 0 176 73 175 181c0 107 -74 182 -176 182c-105 0 -176 -72 -176 -181z" />
    <glyph glyph-name="Cacute" unicode="&#x106;" horiz-adv-x="842" 
d="M468 903h-99l53 197h139zM665 556c-42 105 -129 168 -241 168c-157 0 -261 -119 -261 -299c0 -179 105 -299 261 -299c114 0 202 64 241 168h135c-44 -184 -185 -299 -375 -299c-233 0 -388 173 -388 430c0 258 155 430 388 430c190 0 328 -115 375 -299h-135z" />
    <glyph glyph-name="cacute" unicode="&#x107;" horiz-adv-x="667" 
d="M378 653h-99l53 197h139zM332 483c-99 0 -166 -72 -166 -181c0 -110 67 -182 166 -182c73 0 130 40 155 107h132c-31 -144 -138 -232 -287 -232c-174 0 -291 122 -291 307c0 184 117 306 291 306c149 0 256 -88 287 -231h-132c-27 67 -82 106 -155 106z" />
    <glyph glyph-name="Ccircumflex" unicode="&#x108;" horiz-adv-x="842" 
d="M490 1100l152 -198h-137l-84 109l-83 -109h-137l152 198h137zM665 556c-42 105 -129 168 -241 168c-157 0 -261 -119 -261 -299c0 -179 105 -299 261 -299c114 0 202 64 241 168h135c-44 -184 -185 -299 -375 -299c-233 0 -388 173 -388 430c0 258 155 430 388 430
c190 0 328 -115 375 -299h-135z" />
    <glyph glyph-name="ccircumflex" unicode="&#x109;" horiz-adv-x="667" 
d="M402 850l152 -198h-136l-84 109l-84 -109h-136l152 198h136zM332 483c-99 0 -166 -72 -166 -181c0 -110 67 -182 166 -182c73 0 130 40 155 107h132c-31 -144 -138 -232 -287 -232c-174 0 -291 122 -291 307c0 184 117 306 291 306c149 0 256 -88 287 -231h-132
c-27 67 -82 106 -155 106z" />
    <glyph glyph-name="Cdotaccent" unicode="&#x10a;" horiz-adv-x="842" 
d="M349 1026c0 44 28 72 73 72c44 0 72 -28 72 -72s-28 -73 -72 -73c-45 0 -73 29 -73 73zM665 556c-42 105 -129 168 -241 168c-157 0 -261 -119 -261 -299c0 -179 105 -299 261 -299c114 0 202 64 241 168h135c-44 -184 -185 -299 -375 -299c-233 0 -388 173 -388 430
c0 258 155 430 388 430c190 0 328 -115 375 -299h-135z" />
    <glyph glyph-name="cdotaccent" unicode="&#x10b;" horiz-adv-x="667" 
d="M261 776c0 44 29 72 73 72s72 -28 72 -72s-28 -73 -72 -73s-73 29 -73 73zM332 483c-99 0 -166 -72 -166 -181c0 -110 67 -182 166 -182c73 0 130 40 155 107h132c-31 -144 -138 -232 -287 -232c-174 0 -291 122 -291 307c0 184 117 306 291 306c149 0 256 -88 287 -231
h-132c-27 67 -82 106 -155 106z" />
    <glyph glyph-name="Ccaron" unicode="&#x10c;" horiz-adv-x="842" 
d="M490 902h-137l-152 198h137l83 -109l84 109h137zM665 556c-42 105 -129 168 -241 168c-157 0 -261 -119 -261 -299c0 -179 105 -299 261 -299c114 0 202 64 241 168h135c-44 -184 -185 -299 -375 -299c-233 0 -388 173 -388 430c0 258 155 430 388 430
c190 0 328 -115 375 -299h-135z" />
    <glyph glyph-name="ccaron" unicode="&#x10d;" horiz-adv-x="667" 
d="M402 652h-136l-152 198h136l84 -109l84 109h136zM332 483c-99 0 -166 -72 -166 -181c0 -110 67 -182 166 -182c73 0 130 40 155 107h132c-31 -144 -138 -232 -287 -232c-174 0 -291 122 -291 307c0 184 117 306 291 306c149 0 256 -88 287 -231h-132
c-27 67 -82 106 -155 106z" />
    <glyph glyph-name="Dcaron" unicode="&#x10e;" horiz-adv-x="765" 
d="M404 902h-136l-152 198h136l84 -109l84 109h136zM318 0h-271v850h262c268 0 419 -153 419 -425c0 -270 -149 -425 -410 -425zM309 725h-137v-600h146c179 0 284 111 284 300c0 192 -105 300 -293 300z" />
    <glyph glyph-name="dcaron" unicode="&#x10f;" horiz-adv-x="880" 
d="M698 791c0 44 28 73 73 73c44 0 72 -29 72 -73c0 -55 -18 -102 -60 -170l-10 -17h-69l18 33c18 31 31 59 37 82c-38 5 -61 32 -61 72zM525 0v98c-25 -61 -107 -104 -190 -104c-174 0 -287 122 -287 307c0 184 113 306 287 306c82 0 164 -43 190 -105v348h125v-850h-125z
M173 301c0 -110 72 -182 177 -182c104 0 176 73 175 181c0 107 -73 182 -175 182c-105 0 -177 -72 -177 -181z" />
    <glyph glyph-name="Dcroat" unicode="&#x110;" horiz-adv-x="796" 
d="M349 0h-271v373h-53v124h53v353h262c268 0 419 -153 419 -425c0 -270 -149 -425 -410 -425zM340 725h-137v-228h200v-124h-200v-248h146c179 0 284 111 284 300c0 192 -105 300 -293 300z" />
    <glyph glyph-name="dcroat" unicode="&#x111;" horiz-adv-x="742" 
d="M525 0v98c-25 -61 -107 -104 -190 -104c-174 0 -287 122 -287 307c0 184 113 306 287 306c82 0 164 -43 190 -105v172h-144v96h144v80h125v-80h74v-96h-74v-674h-125zM173 301c0 -110 72 -182 177 -182c104 0 176 73 175 181c0 107 -73 182 -175 182
c-105 0 -177 -72 -177 -181z" />
    <glyph glyph-name="Emacron" unicode="&#x112;" horiz-adv-x="594" 
d="M75 954v125h444v-125h-444zM552 725h-381v-237h372v-125h-372v-238h390v-125h-515v850h506v-125z" />
    <glyph glyph-name="emacron" unicode="&#x113;" horiz-adv-x="671" 
d="M114 704v125h444v-125h-444zM470 184h133c-41 -112 -147 -189 -267 -189c-173 0 -295 127 -295 307c0 174 126 306 292 306c165 0 292 -131 292 -303c0 -16 -1 -33 -4 -48h-451c16 -87 80 -144 165 -144c62 0 112 29 135 71zM170 348h326c-16 84 -80 142 -163 142
s-146 -57 -163 -142z" />
    <glyph glyph-name="Ebreve" unicode="&#x114;" horiz-adv-x="594" 
d="M115 1100h100c2 -48 35 -80 82 -80s79 32 81 80h101c-2 -108 -76 -180 -182 -180c-107 0 -180 72 -182 180zM552 725h-381v-237h372v-125h-372v-238h390v-125h-515v850h506v-125z" />
    <glyph glyph-name="ebreve" unicode="&#x115;" horiz-adv-x="671" 
d="M154 850h101c1 -48 35 -80 82 -80c46 0 79 32 81 80h100c-2 -108 -75 -180 -181 -180c-107 0 -181 72 -183 180zM470 184h133c-41 -112 -147 -189 -267 -189c-173 0 -295 127 -295 307c0 174 126 306 292 306c165 0 292 -131 292 -303c0 -16 -1 -33 -4 -48h-451
c16 -87 80 -144 165 -144c62 0 112 29 135 71zM170 348h326c-16 84 -80 142 -163 142s-146 -57 -163 -142z" />
    <glyph glyph-name="Edotaccent" unicode="&#x116;" horiz-adv-x="594" 
d="M224 1026c0 44 29 72 73 72s72 -28 72 -72s-28 -73 -72 -73s-73 29 -73 73zM552 725h-381v-237h372v-125h-372v-238h390v-125h-515v850h506v-125z" />
    <glyph glyph-name="edotaccent" unicode="&#x117;" horiz-adv-x="671" 
d="M264 776c0 44 28 72 73 72c44 0 72 -28 72 -72s-28 -73 -72 -73c-45 0 -73 29 -73 73zM470 184h133c-41 -112 -147 -189 -267 -189c-173 0 -295 127 -295 307c0 174 126 306 292 306c165 0 292 -131 292 -303c0 -16 -1 -33 -4 -48h-451c16 -87 80 -144 165 -144
c62 0 112 29 135 71zM170 348h326c-16 84 -80 142 -163 142s-146 -57 -163 -142z" />
    <glyph glyph-name="Eogonek" unicode="&#x118;" horiz-adv-x="594" 
d="M552 725h-381v-237h372v-125h-372v-238h390v-125h-47c-23 -24 -35 -51 -31 -77c5 -29 31 -49 70 -49v-83c-99 0 -149 38 -154 112c-3 41 12 73 46 97h-399v850h506v-125z" />
    <glyph glyph-name="eogonek" unicode="&#x119;" horiz-adv-x="671" 
d="M470 184h133c-33 -89 -106 -156 -195 -180c-26 -25 -40 -53 -35 -81c5 -29 31 -49 69 -49v-82c-98 0 -148 37 -153 111c-3 39 10 69 39 92c-169 4 -287 130 -287 307c0 174 126 306 292 306c165 0 292 -131 292 -303c0 -16 -1 -33 -4 -48h-451c16 -87 80 -144 165 -144
c62 0 112 29 135 71zM170 348h326c-16 84 -80 142 -163 142s-146 -57 -163 -142z" />
    <glyph glyph-name="Ecaron" unicode="&#x11a;" horiz-adv-x="594" 
d="M365 902h-136l-152 198h136l84 -109l84 109h136zM552 725h-381v-237h372v-125h-372v-238h390v-125h-515v850h506v-125z" />
    <glyph glyph-name="ecaron" unicode="&#x11b;" horiz-adv-x="671" 
d="M404 652h-136l-152 198h136l84 -109l84 109h136zM470 184h133c-41 -112 -147 -189 -267 -189c-173 0 -295 127 -295 307c0 174 126 306 292 306c165 0 292 -131 292 -303c0 -16 -1 -33 -4 -48h-451c16 -87 80 -144 165 -144c62 0 112 29 135 71zM170 348h326
c-16 84 -80 142 -163 142s-146 -57 -163 -142z" />
    <glyph glyph-name="Gcircumflex" unicode="&#x11c;" horiz-adv-x="869" 
d="M503 1100l152 -198h-136l-84 109l-84 -109h-136l152 198h136zM380 366v119h452c2 -22 4 -43 4 -62c0 -255 -177 -428 -400 -428c-224 0 -400 174 -400 430c0 249 168 430 399 430c175 0 307 -91 367 -243h-135c-45 74 -130 117 -231 117c-158 0 -275 -117 -275 -304
c0 -188 116 -304 276 -304c141 0 249 91 270 245h-327z" />
    <glyph glyph-name="gcircumflex" unicode="&#x11d;" horiz-adv-x="685" 
d="M411 850l152 -198h-136l-84 109l-84 -109h-136l152 198h136zM513 32v66c-25 -61 -108 -104 -188 -104c-170 0 -285 122 -285 307c0 184 114 306 285 306c81 0 163 -44 188 -105v98h125v-568c0 -185 -115 -307 -287 -307c-143 0 -251 83 -283 227h132
c27 -68 84 -102 151 -102c97 0 162 72 162 182zM165 301c0 -110 74 -182 175 -182s174 73 173 181c0 105 -73 182 -173 182c-102 0 -175 -72 -175 -181z" />
    <glyph glyph-name="Gbreve" unicode="&#x11e;" horiz-adv-x="876" 
d="M254 1100h100c2 -48 35 -80 82 -80s80 32 82 80h100c-2 -108 -75 -180 -182 -180c-106 0 -180 72 -182 180zM380 366v119h452c2 -22 4 -43 4 -62c0 -255 -177 -428 -400 -428c-224 0 -400 174 -400 430c0 249 168 430 399 430c175 0 307 -91 367 -243h-135
c-45 74 -130 117 -231 117c-158 0 -275 -117 -275 -304c0 -188 116 -304 276 -304c141 0 249 91 270 245h-327z" />
    <glyph glyph-name="gbreve" unicode="&#x11f;" horiz-adv-x="683" 
d="M160 850h100c2 -48 35 -80 82 -80c46 0 79 32 81 80h100c-2 -108 -75 -180 -181 -180c-107 0 -181 72 -182 180zM511 32v66c-26 -61 -108 -104 -189 -104c-170 0 -284 122 -284 307c0 184 114 306 284 306c82 0 163 -44 189 -105v98h125v-568c0 -185 -116 -307 -287 -307
c-143 0 -251 83 -283 227h132c26 -68 84 -102 151 -102c96 0 162 72 162 182zM163 301c0 -110 73 -182 175 -182c101 0 173 73 173 181c0 105 -73 182 -174 182s-174 -72 -174 -181z" />
    <glyph glyph-name="Gdotaccent" unicode="&#x120;" horiz-adv-x="869" 
d="M363 1026c0 44 28 72 73 72c43 0 72 -28 72 -72s-29 -73 -72 -73c-45 0 -73 29 -73 73zM380 366v119h452c2 -22 4 -43 4 -62c0 -255 -177 -428 -400 -428c-224 0 -400 174 -400 430c0 249 168 430 399 430c175 0 307 -91 367 -243h-135c-45 74 -130 117 -231 117
c-158 0 -275 -117 -275 -304c0 -188 116 -304 276 -304c141 0 249 91 270 245h-327z" />
    <glyph glyph-name="gdotaccent" unicode="&#x121;" horiz-adv-x="685" 
d="M271 776c0 44 28 72 73 72c43 0 72 -28 72 -72s-29 -73 -72 -73c-45 0 -73 29 -73 73zM513 32v66c-25 -61 -108 -104 -188 -104c-170 0 -285 122 -285 307c0 184 114 306 285 306c81 0 163 -44 188 -105v98h125v-568c0 -185 -115 -307 -287 -307c-143 0 -251 83 -283 227
h132c27 -68 84 -102 151 -102c97 0 162 72 162 182zM165 301c0 -110 74 -182 175 -182s174 73 173 181c0 105 -73 182 -173 182c-102 0 -175 -72 -175 -181z" />
    <glyph glyph-name="uni0122" unicode="&#x122;" horiz-adv-x="869" 
d="M380 366v119h452c2 -22 4 -43 4 -62c0 -255 -177 -428 -400 -428c-224 0 -400 174 -400 430c0 249 168 430 399 430c175 0 307 -91 367 -243h-135c-45 74 -130 117 -231 117c-158 0 -275 -117 -275 -304c0 -188 116 -304 276 -304c141 0 249 91 270 245h-327zM364 -154
c0 43 28 72 73 72c44 0 72 -29 72 -72c0 -56 -18 -103 -60 -171l-10 -17h-69l18 33c18 32 31 59 37 82c-38 5 -61 33 -61 73z" />
    <glyph glyph-name="uni0123" unicode="&#x123;" horiz-adv-x="685" 
d="M410 755c0 -44 -28 -72 -73 -72c-44 0 -72 28 -72 72c0 55 18 103 60 170l10 18h69l-18 -33c-18 -32 -31 -59 -38 -83c39 -4 62 -32 62 -72zM513 32v66c-25 -61 -108 -104 -188 -104c-170 0 -285 122 -285 307c0 184 114 306 285 306c81 0 163 -44 188 -105v98h125v-568
c0 -185 -115 -307 -287 -307c-143 0 -251 83 -283 227h132c27 -68 84 -102 151 -102c97 0 162 72 162 182zM165 301c0 -110 74 -182 175 -182s174 73 173 181c0 105 -73 182 -173 182c-102 0 -175 -72 -175 -181z" />
    <glyph glyph-name="Hcircumflex" unicode="&#x124;" horiz-adv-x="735" 
d="M436 1100l152 -198h-136l-84 109l-84 -109h-136l152 198h136zM170 0h-125v850h125v-362h398v362h125v-850h-125v363h-398v-363z" />
    <glyph glyph-name="hcircumflex" unicode="&#x125;" horiz-adv-x="636" 
d="M178 1099l152 -198h-136l-84 109l-84 -109h-136l152 198h136zM460 301c0 110 -57 181 -145 181c-81 0 -141 -76 -141 -182v-300h-125v850h125v-348c23 61 89 105 163 105c152 0 248 -121 248 -306v-301h-125v301z" />
    <glyph glyph-name="Hbar" unicode="&#x126;" horiz-adv-x="796" 
d="M199 0h-125v605h-60v125h60v120h125v-120h398v120h125v-120h58v-125h-58v-605h-125v363h-398v-363zM199 488h398v117h-398v-117z" />
    <glyph glyph-name="hbar" unicode="&#x127;" horiz-adv-x="690" 
d="M514 301c0 110 -57 181 -145 181c-81 0 -140 -76 -140 -182v-300h-125l-1 674h-82v107h83v69h125v-69h206v-107h-206v-172c22 61 88 105 162 105c152 0 248 -121 248 -306v-301h-125v301z" />
    <glyph glyph-name="Itilde" unicode="&#x128;" horiz-adv-x="229" 
d="M-40 926h-80c9 106 60 174 131 174c94 0 141 -73 204 -73c30 0 49 25 54 73h80c-3 -104 -57 -174 -133 -174c-99 0 -132 74 -199 74c-27 0 -51 -31 -57 -74zM177 0h-125v850h125v-850z" />
    <glyph glyph-name="itilde" unicode="&#x129;" horiz-adv-x="234" 
d="M-37 676h-80c9 106 60 174 131 174c94 0 141 -73 204 -73c30 0 49 25 54 73h80c-3 -104 -57 -174 -133 -174c-99 0 -132 74 -199 74c-27 0 -51 -31 -57 -74zM180 0h-125v600h125v-600z" />
    <glyph glyph-name="Imacron" unicode="&#x12a;" horiz-adv-x="229" 
d="M-107 954v125h444v-125h-444zM177 0h-125v850h125v-850z" />
    <glyph glyph-name="imacron" unicode="&#x12b;" horiz-adv-x="234" 
d="M-105 704v125h444v-125h-444zM180 0h-125v600h125v-600z" />
    <glyph glyph-name="Iogonek" unicode="&#x12e;" horiz-adv-x="229" 
d="M177 0h-23c-26 -26 -40 -54 -35 -81c5 -30 31 -50 69 -50v-82c-98 0 -148 37 -153 112c-3 43 14 76 52 101h-35v850h125v-850z" />
    <glyph glyph-name="iogonek" unicode="&#x12f;" horiz-adv-x="234" 
d="M45 776c0 44 28 72 73 72c43 0 72 -28 72 -72s-29 -73 -72 -73c-45 0 -73 29 -73 73zM180 0h-23c-26 -26 -40 -54 -36 -81c6 -30 32 -50 70 -50v-82c-99 0 -148 37 -153 112c-4 43 14 76 52 101h-35v600h125v-600z" />
    <glyph glyph-name="Idotaccent" unicode="&#x130;" horiz-adv-x="229" 
d="M43 1026c0 44 28 72 73 72c43 0 72 -28 72 -72s-29 -73 -72 -73c-45 0 -73 29 -73 73zM177 0h-125v850h125v-850z" />
    <glyph glyph-name="dotlessi" unicode="&#x131;" horiz-adv-x="234" 
d="M180 0h-125v600h125v-600z" />
    <glyph glyph-name="IJ" unicode="&#x132;" horiz-adv-x="870" 
d="M177 0h-125v850h125v-850zM701 302v548h125v-548c0 -185 -115 -307 -287 -307c-148 0 -255 90 -282 232h132c22 -66 77 -107 150 -107c97 0 162 72 162 182z" />
    <glyph glyph-name="ij" unicode="&#x133;" horiz-adv-x="476" 
d="M43 776c0 44 28 72 73 72c43 0 72 -28 72 -72s-29 -73 -72 -73c-45 0 -73 29 -73 73zM276 776c0 44 28 72 73 72c44 0 72 -28 72 -72s-28 -73 -72 -73c-45 0 -73 29 -73 73zM178 0h-125v600h358v-669c0 -148 -61 -206 -204 -206h-52v123h41c62 0 90 28 90 90v539h-108
v-477z" />
    <glyph glyph-name="Jcircumflex" unicode="&#x134;" horiz-adv-x="652" 
d="M613 1100l152 -198h-136l-84 109l-84 -109h-136l152 198h136zM482 302v548h125v-548c0 -185 -114 -307 -287 -307c-148 0 -254 90 -282 232h132c22 -66 77 -107 150 -107c98 0 162 72 162 182z" />
    <glyph glyph-name="jcircumflex" unicode="&#x135;" horiz-adv-x="253" 
d="M194 850l152 -198h-137l-84 109l-83 -109h-137l152 198h137zM188 600v-669c0 -148 -61 -206 -204 -206h-52v123h40c63 0 91 28 91 90v662h125z" />
    <glyph glyph-name="uni0136" unicode="&#x136;" horiz-adv-x="695" 
d="M176 0h-125v850h125v-411l323 411h147l-330 -425l362 -425h-160l-342 402v-402zM271 -154c0 44 28 73 73 73c44 0 72 -29 72 -73c0 -55 -18 -102 -60 -170l-10 -17h-69l18 33c18 31 31 59 37 82c-38 5 -61 33 -61 72z" />
    <glyph glyph-name="uni0137" unicode="&#x137;" horiz-adv-x="582" 
d="M186 0h-125v850h125v-529l236 279h139l-238 -300l259 -300h-160l-236 279v-279zM216 -154c0 43 28 72 73 72c44 0 72 -29 72 -72c0 -56 -18 -103 -60 -171l-10 -17h-69l18 33c18 32 31 59 37 82c-38 5 -61 33 -61 73z" />
    <glyph glyph-name="kgreenlandic" unicode="&#x138;" horiz-adv-x="582" 
d="M176 0h-125v600h125v-279l237 279h138l-237 -300l259 -300h-160l-237 279v-279z" />
    <glyph glyph-name="Lacute" unicode="&#x139;" horiz-adv-x="596" 
d="M158 901h-99l53 197h139zM561 125v-125h-515v850h125v-725h390z" />
    <glyph glyph-name="lacute" unicode="&#x13a;" horiz-adv-x="230" 
d="M164 900h-99l53 197h138zM177 0h-125v850h125v-850z" />
    <glyph glyph-name="uni013B" unicode="&#x13b;" horiz-adv-x="596" 
d="M561 125v-125h-515v850h125v-725h390zM232 -155c0 44 29 73 73 73s72 -29 72 -73c0 -55 -17 -102 -59 -170l-11 -17h-68l18 33c18 31 30 59 37 82c-38 5 -62 33 -62 72z" />
    <glyph glyph-name="uni013C" unicode="&#x13c;" horiz-adv-x="230" 
d="M177 0h-125v850h125v-850zM44 -154c0 43 28 72 73 72c44 0 72 -29 72 -72c0 -56 -18 -103 -60 -171l-10 -17h-69l18 33c18 32 31 59 37 82c-38 5 -61 33 -61 73z" />
    <glyph glyph-name="Lcaron" unicode="&#x13d;" horiz-adv-x="596" 
d="M331 778c0 44 28 72 73 72c43 0 72 -28 72 -72c0 -55 -18 -103 -60 -170l-11 -17h-68l18 33c18 31 30 58 37 82c-38 4 -61 32 -61 72zM561 125v-125h-515v850h125v-725h390z" />
    <glyph glyph-name="lcaron" unicode="&#x13e;" horiz-adv-x="409" 
d="M177 0h-125v850h125v-850zM230 778c0 44 28 72 73 72c44 0 72 -28 72 -72c0 -55 -18 -103 -60 -170l-10 -18h-69l18 33c18 32 31 59 37 82c-38 5 -61 33 -61 73z" />
    <glyph glyph-name="Ldot" unicode="&#x13f;" horiz-adv-x="596" 
d="M561 125v-125h-515v850h125v-725h390zM308 425c0 44 28 72 73 72c44 0 72 -28 72 -72s-28 -73 -72 -73c-45 0 -73 29 -73 73z" />
    <glyph glyph-name="ldot" unicode="&#x140;" horiz-adv-x="413" 
d="M177 0h-125v850h125v-850zM229 425c0 44 28 72 73 72c44 0 72 -28 72 -72s-28 -73 -72 -73c-45 0 -73 29 -73 73z" />
    <glyph glyph-name="Lslash" unicode="&#x141;" 
d="M585 125v-125h-515v303l-50 -20v124l50 19v424h125v-375l77 30v-123l-77 -30v-227h390z" />
    <glyph glyph-name="lslash" unicode="&#x142;" horiz-adv-x="278" 
d="M201 0h-125v307l-55 -21v123l55 22v419h125v-370l56 23v-124l-56 -22v-357z" />
    <glyph glyph-name="Nacute" unicode="&#x143;" horiz-adv-x="792" 
d="M446 903h-99l53 197h138zM170 0h-125v850h125l449 -635v635h125v-812l1 -1h-1v-37h-125l-449 634v-634z" />
    <glyph glyph-name="nacute" unicode="&#x144;" horiz-adv-x="633" 
d="M379 653h-99l53 197h139zM460 301c0 110 -57 181 -145 181c-81 0 -141 -76 -141 -182v-300h-125v600h125v-98c23 61 89 105 163 105c152 0 248 -121 248 -306v-301h-125v301z" />
    <glyph glyph-name="uni0145" unicode="&#x145;" horiz-adv-x="792" 
d="M170 0h-125v850h125l449 -635v635h125v-812l1 -1h-1v-37h-125l-449 634v-634zM325 -154c0 43 29 72 73 72s72 -29 72 -72c0 -56 -17 -103 -59 -171l-11 -17h-68l18 33c18 32 30 59 37 82c-38 5 -62 33 -62 73z" />
    <glyph glyph-name="uni0146" unicode="&#x146;" horiz-adv-x="633" 
d="M460 301c0 110 -57 181 -145 181c-81 0 -141 -76 -141 -182v-300h-125v600h125v-98c23 61 89 105 163 105c152 0 248 -121 248 -306v-301h-125v301zM246 -154c0 43 28 72 73 72c44 0 72 -29 72 -72c0 -56 -18 -103 -60 -171l-10 -17h-69l18 33c18 32 31 59 38 82
c-38 5 -62 33 -62 73z" />
    <glyph glyph-name="Ncaron" unicode="&#x147;" horiz-adv-x="792" 
d="M465 902h-137l-152 198h137l83 -109l84 109h137zM170 0h-125v850h125l449 -635v635h125v-812l1 -1h-1v-37h-125l-449 634v-634z" />
    <glyph glyph-name="ncaron" unicode="&#x148;" horiz-adv-x="633" 
d="M385 652h-136l-152 198h136l84 -109l84 109h136zM460 301c0 110 -57 181 -145 181c-81 0 -141 -76 -141 -182v-300h-125v600h125v-98c23 61 89 105 163 105c152 0 248 -121 248 -306v-301h-125v301z" />
    <glyph glyph-name="napostrophe" unicode="&#x149;" horiz-adv-x="792" 
d="M28 666c0 44 28 72 73 72c44 0 72 -28 72 -72c0 -55 -18 -103 -60 -170l-10 -17h-69l18 33c18 31 31 58 38 82c-38 4 -62 32 -62 72zM619 301c0 110 -57 181 -145 181c-81 0 -140 -76 -140 -182v-300h-125v600h125v-98c22 61 88 105 162 105c153 0 248 -121 248 -306
v-301h-125v301z" />
    <glyph glyph-name="Omacron" unicode="&#x14c;" horiz-adv-x="854" 
d="M206 954v125h444v-125h-444zM38 425c0 252 162 430 392 430s391 -178 391 -430c0 -253 -161 -431 -391 -431s-392 178 -392 431zM430 732c-157 0 -267 -127 -267 -307c0 -182 110 -308 267 -308s266 126 266 308s-108 307 -266 307z" />
    <glyph glyph-name="omacron" unicode="&#x14d;" horiz-adv-x="657" 
d="M107 704v125h444v-125h-444zM35 301c0 173 129 306 295 306s294 -133 294 -306c0 -174 -128 -307 -294 -307s-295 133 -295 307zM330 482c-96 0 -170 -78 -170 -181c0 -104 74 -182 170 -182s169 78 169 182c0 103 -73 181 -169 181z" />
    <glyph glyph-name="Obreve" unicode="&#x14e;" horiz-adv-x="854" 
d="M245 1100h101c1 -48 35 -80 82 -80c46 0 79 32 81 80h100c-2 -108 -75 -180 -181 -180c-107 0 -181 72 -183 180zM38 425c0 252 162 430 392 430s391 -178 391 -430c0 -253 -161 -431 -391 -431s-392 178 -392 431zM430 732c-157 0 -267 -127 -267 -307
c0 -182 110 -308 267 -308s266 126 266 308s-108 307 -266 307z" />
    <glyph glyph-name="obreve" unicode="&#x14f;" horiz-adv-x="657" 
d="M148 850h100c2 -48 35 -80 82 -80c46 0 79 32 81 80h100c-2 -108 -75 -180 -181 -180c-107 0 -181 72 -182 180zM35 301c0 173 129 306 295 306s294 -133 294 -306c0 -174 -128 -307 -294 -307s-295 133 -295 307zM330 482c-96 0 -170 -78 -170 -181
c0 -104 74 -182 170 -182s169 78 169 182c0 103 -73 181 -169 181z" />
    <glyph glyph-name="Ohungarumlaut" unicode="&#x150;" horiz-adv-x="854" 
d="M364 903h-99l53 197h138zM585 903h-99l53 197h139zM38 425c0 252 162 430 392 430s391 -178 391 -430c0 -253 -161 -431 -391 -431s-392 178 -392 431zM430 732c-157 0 -267 -127 -267 -307c0 -182 110 -308 267 -308s266 126 266 308s-108 307 -266 307z" />
    <glyph glyph-name="ohungarumlaut" unicode="&#x151;" horiz-adv-x="657" 
d="M261 653h-99l53 197h138zM482 653h-99l53 197h139zM35 301c0 173 129 306 295 306s294 -133 294 -306c0 -174 -128 -307 -294 -307s-295 133 -295 307zM330 482c-96 0 -170 -78 -170 -181c0 -104 74 -182 170 -182s169 78 169 182c0 103 -73 181 -169 181z" />
    <glyph glyph-name="OE" unicode="&#x152;" horiz-adv-x="1263" 
d="M38 425c0 252 162 430 392 430c108 0 201 -39 270 -107v102h506v-125h-381v-237h372v-125h-372v-238h390v-125h-515v102c-69 -69 -162 -108 -270 -108c-230 0 -392 178 -392 431zM430 732c-157 0 -267 -127 -267 -307c0 -182 110 -308 267 -308s266 126 266 308
s-108 307 -266 307z" />
    <glyph glyph-name="oe" unicode="&#x153;" horiz-adv-x="1128" 
d="M42 301c0 173 128 306 295 306c95 0 177 -44 230 -113c53 70 135 113 230 113c166 0 292 -131 292 -303c0 -16 -1 -33 -3 -48h-451c16 -87 79 -144 164 -144c63 0 112 29 136 71h132c-41 -112 -146 -189 -267 -189c-99 0 -182 42 -234 112c-53 -69 -135 -112 -229 -112
c-167 0 -295 133 -295 307zM635 347h325c-16 84 -80 142 -163 142s-145 -57 -162 -142zM337 482c-96 0 -170 -78 -170 -181c0 -104 74 -182 170 -182s169 78 169 182c0 103 -73 181 -169 181z" />
    <glyph glyph-name="Racute" unicode="&#x154;" horiz-adv-x="691" 
d="M349 903h-99l53 197h138zM171 0h-125v850h303c172 0 290 -103 290 -273c0 -126 -67 -221 -173 -259l209 -318h-150l-193 301h-161v-301zM349 725h-178v-299h187c88 0 155 63 155 151s-68 148 -164 148z" />
    <glyph glyph-name="racute" unicode="&#x155;" horiz-adv-x="425" 
d="M251 653h-99l53 197h138zM394 607v-125c-142 1 -222 -69 -222 -195v-287h-125v600h125v-111c46 87 139 118 222 118z" />
    <glyph glyph-name="uni0156" unicode="&#x156;" horiz-adv-x="691" 
d="M171 0h-125v850h303c172 0 290 -103 290 -273c0 -126 -67 -221 -173 -259l209 -318h-150l-193 301h-161v-301zM349 725h-178v-299h187c88 0 155 63 155 151s-68 148 -164 148zM275 -154c0 44 28 72 73 72c44 0 72 -28 72 -72c0 -55 -18 -103 -60 -170l-10 -18h-69l18 33
c18 32 31 59 37 83c-38 4 -61 32 -61 72z" />
    <glyph glyph-name="uni0157" unicode="&#x157;" horiz-adv-x="425" 
d="M394 607v-125c-142 1 -222 -69 -222 -195v-287h-125v600h125v-111c46 87 139 118 222 118zM36 -153c0 44 28 73 73 73c44 0 72 -29 72 -73c0 -55 -18 -102 -60 -170l-10 -17h-69l18 33c18 31 31 59 38 82c-38 5 -62 33 -62 72z" />
    <glyph glyph-name="Rcaron" unicode="&#x158;" horiz-adv-x="691" 
d="M414 902h-136l-152 198h136l84 -109l84 109h136zM171 0h-125v850h303c172 0 290 -103 290 -273c0 -126 -67 -221 -173 -259l209 -318h-150l-193 301h-161v-301zM349 725h-178v-299h187c88 0 155 63 155 151s-68 148 -164 148z" />
    <glyph glyph-name="rcaron" unicode="&#x159;" horiz-adv-x="425" 
d="M281 652h-137l-152 198h137l83 -109l84 109h137zM394 607v-125c-142 1 -222 -69 -222 -195v-287h-125v600h125v-111c46 87 139 118 222 118z" />
    <glyph glyph-name="Sacute" unicode="&#x15a;" horiz-adv-x="676" 
d="M381 903h-99l53 197h138zM36 261h125c6 -88 88 -148 181 -148c94 0 172 46 173 128c1 86 -74 114 -164 136c-131 32 -290 54 -290 242c1 162 126 236 278 236c147 0 279 -77 281 -239h-125c-6 80 -74 119 -156 119c-84 0 -152 -39 -153 -114c-1 -87 84 -101 187 -126
c128 -30 268 -79 267 -253c-1 -151 -134 -247 -297 -248c-160 0 -303 98 -307 267z" />
    <glyph glyph-name="sacute" unicode="&#x15b;" horiz-adv-x="535" 
d="M309 653h-99l53 197h139zM38 196h119c2 -53 53 -95 115 -96c57 0 95 25 95 67c0 50 -44 71 -124 93c-90 26 -186 57 -186 175c0 108 93 172 213 172s203 -74 210 -186h-112c-5 45 -46 80 -99 80c-49 0 -87 -26 -87 -65c-1 -50 61 -65 105 -76c90 -23 205 -51 205 -192
c0 -101 -95 -174 -224 -174c-113 0 -228 75 -230 202z" />
    <glyph glyph-name="Scircumflex" unicode="&#x15c;" horiz-adv-x="676" 
d="M413 1100l152 -198h-136l-84 109l-84 -109h-136l152 198h136zM36 261h125c6 -88 88 -148 181 -148c94 0 172 46 173 128c1 86 -74 114 -164 136c-131 32 -290 54 -290 242c1 162 126 236 278 236c147 0 279 -77 281 -239h-125c-6 80 -74 119 -156 119
c-84 0 -152 -39 -153 -114c-1 -87 84 -101 187 -126c128 -30 268 -79 267 -253c-1 -151 -134 -247 -297 -248c-160 0 -303 98 -307 267z" />
    <glyph glyph-name="scircumflex" unicode="&#x15d;" horiz-adv-x="535" 
d="M338 850l152 -198h-136l-84 109l-84 -109h-136l152 198h136zM38 196h119c2 -53 53 -95 115 -96c57 0 95 25 95 67c0 50 -44 71 -124 93c-90 26 -186 57 -186 175c0 108 93 172 213 172s203 -74 210 -186h-112c-5 45 -46 80 -99 80c-49 0 -87 -26 -87 -65
c-1 -50 61 -65 105 -76c90 -23 205 -51 205 -192c0 -101 -95 -174 -224 -174c-113 0 -228 75 -230 202z" />
    <glyph glyph-name="Scedilla" unicode="&#x15e;" horiz-adv-x="676" 
d="M36 261h125c6 -88 88 -148 181 -148c94 0 172 46 173 128c1 86 -74 114 -164 136c-131 32 -290 54 -290 242c1 162 126 236 278 236c147 0 279 -77 281 -239h-125c-6 80 -74 119 -156 119c-84 0 -152 -39 -153 -114c-1 -87 84 -101 187 -126c128 -30 268 -79 267 -253
c-1 -128 -96 -216 -224 -241l-33 -168h-126l55 162c-147 12 -272 108 -276 266z" />
    <glyph glyph-name="scedilla" unicode="&#x15f;" horiz-adv-x="535" 
d="M38 196h119c2 -53 53 -95 115 -96c57 0 95 25 95 67c0 50 -44 71 -124 93c-90 26 -186 57 -186 175c0 108 93 172 213 172s203 -74 210 -186h-112c-5 45 -46 80 -99 80c-49 0 -87 -26 -87 -65c-1 -50 61 -65 105 -76c90 -23 205 -51 205 -192c0 -83 -65 -147 -159 -167
l-33 -168h-126l55 164c-99 15 -190 87 -191 199z" />
    <glyph glyph-name="Scaron" unicode="&#x160;" horiz-adv-x="676" 
d="M406 902h-136l-152 198h136l84 -109l84 109h136zM36 261h125c6 -88 88 -148 181 -148c94 0 172 46 173 128c1 86 -74 114 -164 136c-131 32 -290 54 -290 242c1 162 126 236 278 236c147 0 279 -77 281 -239h-125c-6 80 -74 119 -156 119c-84 0 -152 -39 -153 -114
c-1 -87 84 -101 187 -126c128 -30 268 -79 267 -253c-1 -151 -134 -247 -297 -248c-160 0 -303 98 -307 267z" />
    <glyph glyph-name="scaron" unicode="&#x161;" horiz-adv-x="535" 
d="M336 652h-136l-152 198h136l84 -109l84 109h136zM38 196h119c2 -53 53 -95 115 -96c57 0 95 25 95 67c0 50 -44 71 -124 93c-90 26 -186 57 -186 175c0 108 93 172 213 172s203 -74 210 -186h-112c-5 45 -46 80 -99 80c-49 0 -87 -26 -87 -65c-1 -50 61 -65 105 -76
c90 -23 205 -51 205 -192c0 -101 -95 -174 -224 -174c-113 0 -228 75 -230 202z" />
    <glyph glyph-name="uni0162" unicode="&#x162;" horiz-adv-x="674" 
d="M399 0h-11l-33 -167h-126l56 167h-11v725h-252v125h629v-125h-252v-725z" />
    <glyph glyph-name="uni0163" unicode="&#x163;" horiz-adv-x="418" 
d="M152 727h95v-127h130v-118h-130v-269c0 -62 28 -89 90 -89h40v-124h-37l-32 -167h-126l59 176c-83 22 -119 83 -119 197v276h-89v118h89z" />
    <glyph glyph-name="Tcaron" unicode="&#x164;" horiz-adv-x="674" 
d="M405 902h-136l-152 198h136l84 -109l84 109h136zM399 0h-125v725h-252v125h629v-125h-252v-725z" />
    <glyph glyph-name="tcaron" unicode="&#x165;" horiz-adv-x="441" 
d="M308 860c0 44 28 72 73 72c43 0 72 -28 72 -72c0 -55 -18 -103 -60 -170l-11 -17h-68l18 33c18 31 30 58 37 82c-38 4 -61 32 -61 72zM152 727h95v-127h130v-118h-130v-269c0 -62 28 -89 90 -89h40v-124h-52c-143 0 -203 59 -203 206v276h-89v118h89z" />
    <glyph glyph-name="Tbar" unicode="&#x166;" horiz-adv-x="674" 
d="M399 0h-125v323h-160v125h160v277h-252v125h629v-125h-252v-277h159v-125h-159v-323z" />
    <glyph glyph-name="tbar" unicode="&#x167;" horiz-adv-x="418" 
d="M152 727h95v-127h130v-118h-130v-112h130v-117h-130v-40c0 -62 28 -89 90 -89h40v-124h-52c-143 0 -203 59 -203 206v47h-89v117h89v112h-89v118h89z" />
    <glyph glyph-name="Utilde" unicode="&#x168;" horiz-adv-x="799" 
d="M239 926h-80c9 106 60 174 131 174c94 0 141 -73 204 -73c30 0 49 25 54 73h79c-3 -104 -56 -174 -133 -174c-98 0 -131 74 -198 74c-27 0 -51 -31 -57 -74zM49 425v425h125v-425c0 -213 68 -308 221 -308c152 0 220 95 220 308v425h125v-425c0 -281 -120 -431 -345 -431
c-226 0 -346 149 -346 431z" />
    <glyph glyph-name="utilde" unicode="&#x169;" 
d="M150 676h-80c9 106 61 174 131 174c94 0 141 -73 204 -73c30 0 49 25 54 73h80c-3 -104 -57 -174 -133 -174c-99 0 -132 74 -199 74c-27 0 -51 -31 -57 -74zM167 299c0 -110 56 -181 144 -181c82 0 141 77 141 182v300h125v-600h-125v98c-22 -61 -88 -105 -162 -105
c-153 0 -248 122 -248 306v301h125v-301z" />
    <glyph glyph-name="Umacron" unicode="&#x16a;" horiz-adv-x="799" 
d="M178 954v125h444v-125h-444zM49 425v425h125v-425c0 -213 68 -308 221 -308c152 0 220 95 220 308v425h125v-425c0 -281 -120 -431 -345 -431c-226 0 -346 149 -346 431z" />
    <glyph glyph-name="umacron" unicode="&#x16b;" 
d="M89 704v125h444v-125h-444zM167 299c0 -110 56 -181 144 -181c82 0 141 77 141 182v300h125v-600h-125v98c-22 -61 -88 -105 -162 -105c-153 0 -248 122 -248 306v301h125v-301z" />
    <glyph glyph-name="Ubreve" unicode="&#x16c;" horiz-adv-x="799" 
d="M218 1100h100c2 -48 35 -80 82 -80s80 32 82 80h100c-2 -108 -75 -180 -182 -180c-106 0 -180 72 -182 180zM49 425v425h125v-425c0 -213 68 -308 221 -308c152 0 220 95 220 308v425h125v-425c0 -281 -120 -431 -345 -431c-226 0 -346 149 -346 431z" />
    <glyph glyph-name="ubreve" unicode="&#x16d;" 
d="M129 850h101c1 -48 35 -80 82 -80c46 0 79 32 81 80h100c-2 -108 -75 -180 -181 -180c-107 0 -181 72 -183 180zM167 299c0 -110 56 -181 144 -181c82 0 141 77 141 182v300h125v-600h-125v98c-22 -61 -88 -105 -162 -105c-153 0 -248 122 -248 306v301h125v-301z" />
    <glyph glyph-name="Uring" unicode="&#x16e;" horiz-adv-x="799" 
d="M296 999c0 62 43 103 105 103c60 0 103 -41 103 -103c0 -61 -43 -103 -103 -103c-62 0 -105 42 -105 103zM401 1050c-30 0 -53 -21 -53 -51c0 -29 24 -50 53 -50c28 0 51 21 51 50c0 30 -22 51 -51 51zM49 425v425h125v-425c0 -213 68 -308 221 -308
c152 0 220 95 220 308v425h125v-425c0 -281 -120 -431 -345 -431c-226 0 -346 149 -346 431z" />
    <glyph glyph-name="uring" unicode="&#x16f;" 
d="M207 749c0 62 43 103 105 103c60 0 103 -41 103 -103c0 -61 -43 -103 -103 -103c-62 0 -105 42 -105 103zM312 800c-30 0 -53 -21 -53 -51c0 -29 24 -50 53 -50c28 0 51 21 51 50c0 30 -22 51 -51 51zM167 299c0 -110 56 -181 144 -181c82 0 141 77 141 182v300h125v-600
h-125v98c-22 -61 -88 -105 -162 -105c-153 0 -248 122 -248 306v301h125v-301z" />
    <glyph glyph-name="Uhungarumlaut" unicode="&#x170;" horiz-adv-x="799" 
d="M334 903h-99l53 197h139zM556 903h-99l53 197h138zM49 425v425h125v-425c0 -213 68 -308 221 -308c152 0 220 95 220 308v425h125v-425c0 -281 -120 -431 -345 -431c-226 0 -346 149 -346 431z" />
    <glyph glyph-name="uhungarumlaut" unicode="&#x171;" 
d="M241 653h-99l53 197h139zM463 653h-99l53 197h138zM167 299c0 -110 56 -181 144 -181c82 0 141 77 141 182v300h125v-600h-125v98c-22 -61 -88 -105 -162 -105c-153 0 -248 122 -248 306v301h125v-301z" />
    <glyph glyph-name="Uogonek" unicode="&#x172;" horiz-adv-x="799" 
d="M49 425v425h125v-425c0 -213 68 -308 221 -308c152 0 220 95 220 308v425h125v-425c0 -241 -88 -385 -255 -422c-26 -25 -39 -53 -35 -81c5 -29 31 -49 70 -49v-82c-99 0 -149 37 -154 111c-2 39 10 69 40 92h-11c-226 0 -346 149 -346 431z" />
    <glyph glyph-name="uogonek" unicode="&#x173;" 
d="M167 299c0 -110 56 -181 144 -181c82 0 141 77 141 182v300h125v-600h-23c-26 -26 -40 -54 -35 -81c5 -30 31 -50 70 -50v-82c-99 0 -149 37 -154 112c-3 43 14 76 53 101h-36v98c-22 -61 -88 -105 -162 -105c-153 0 -248 122 -248 306v301h125v-301z" />
    <glyph glyph-name="Wcircumflex" unicode="&#x174;" horiz-adv-x="1075" 
d="M606 1100l152 -198h-136l-84 109l-84 -109h-136l152 198h136zM265 0l1 3l-257 847h130l185 -607l149 607h128l147 -609l186 609h130l-258 -850h-128l-141 586l-144 -586h-128z" />
    <glyph glyph-name="wcircumflex" unicode="&#x175;" horiz-adv-x="909" 
d="M523 850l152 -198h-136l-84 109l-84 -109h-136l152 198h136zM332 0h-130l-188 600h131l122 -391l122 391h130l122 -391l122 391h131l-187 -600h-131l-122 391z" />
    <glyph glyph-name="Ycircumflex" unicode="&#x176;" horiz-adv-x="741" 
d="M439 1100l152 -198h-136l-84 109l-84 -109h-136l152 198h136zM432 361v-361h-125v361l-298 489h144l217 -379l216 379h145z" />
    <glyph glyph-name="ycircumflex" unicode="&#x177;" horiz-adv-x="622" 
d="M380 850l152 -198h-137l-84 109l-83 -109h-137l152 198h137zM610 600l-256 -660c-47 -121 -70 -177 -202 -177h-41v123h30c40 0 65 14 85 66l18 48l-232 600h133l166 -428l166 428h133z" />
    <glyph glyph-name="Ydieresis" unicode="&#x178;" horiz-adv-x="741" 
d="M187 1026c0 44 28 72 73 72c43 0 72 -28 72 -72s-29 -73 -72 -73c-45 0 -73 29 -73 73zM410 1026c0 44 28 72 73 72c44 0 72 -28 72 -72s-28 -73 -72 -73c-45 0 -73 29 -73 73zM432 361v-361h-125v361l-298 489h144l217 -379l216 379h145z" />
    <glyph glyph-name="Zacute" unicode="&#x179;" horiz-adv-x="679" 
d="M381 903h-99l53 197h139zM36 0v93l434 635h-427v122h594v-98l-429 -630h435v-122h-607z" />
    <glyph glyph-name="zacute" unicode="&#x17a;" horiz-adv-x="539" 
d="M312 653h-99l53 197h138zM36 0v93l287 385h-280v122h452v-98l-281 -380h287v-122h-465z" />
    <glyph glyph-name="Zdotaccent" unicode="&#x17b;" horiz-adv-x="679" 
d="M268 1026c0 44 28 72 73 72c44 0 72 -28 72 -72s-28 -73 -72 -73c-45 0 -73 29 -73 73zM36 0v93l434 635h-427v122h594v-98l-429 -630h435v-122h-607z" />
    <glyph glyph-name="zdotaccent" unicode="&#x17c;" horiz-adv-x="539" 
d="M197 776c0 44 28 72 73 72c44 0 72 -28 72 -72s-28 -73 -72 -73c-45 0 -73 29 -73 73zM36 0v93l287 385h-280v122h452v-98l-281 -380h287v-122h-465z" />
    <glyph glyph-name="Zcaron" unicode="&#x17d;" horiz-adv-x="679" 
d="M409 902h-137l-152 198h137l83 -109l84 109h137zM36 0v93l434 635h-427v122h594v-98l-429 -630h435v-122h-607z" />
    <glyph glyph-name="zcaron" unicode="&#x17e;" horiz-adv-x="539" 
d="M338 652h-136l-152 198h136l84 -109l84 109h136zM36 0v93l287 385h-280v122h452v-98l-281 -380h287v-122h-465z" />
    <glyph glyph-name="longs" unicode="&#x17f;" horiz-adv-x="347" 
d="M63 0v651c0 148 61 206 204 206h52v-123h-41c-62 0 -90 -28 -90 -90v-644h-125z" />
    <glyph glyph-name="florin" unicode="&#x192;" horiz-adv-x="408" 
d="M29 482v118h88v51c0 148 60 206 203 206h52v-123h-40c-62 0 -90 -28 -90 -90v-44h131v-118h-131v-533c0 -148 -60 -206 -204 -206h-52v123h41c62 0 90 28 90 90v526h-88z" />
    <glyph glyph-name="uni0218" unicode="&#x218;" horiz-adv-x="676" 
d="M36 261h125c6 -88 88 -148 181 -148c94 0 172 46 173 128c1 86 -74 114 -164 136c-131 32 -290 54 -290 242c1 162 126 236 278 236c147 0 279 -77 281 -239h-125c-6 80 -74 119 -156 119c-84 0 -152 -39 -153 -114c-1 -87 84 -101 187 -126c128 -30 268 -79 267 -253
c-1 -151 -134 -247 -297 -248c-160 0 -303 98 -307 267zM274 -154c0 43 28 72 73 72c43 0 72 -29 72 -72c0 -56 -18 -103 -60 -171l-11 -17h-68l18 33c18 32 30 59 37 82c-38 5 -61 33 -61 73z" />
    <glyph glyph-name="uni0219" unicode="&#x219;" horiz-adv-x="535" 
d="M38 196h119c2 -53 53 -95 115 -96c57 0 95 25 95 67c0 50 -44 71 -124 93c-90 26 -186 57 -186 175c0 108 93 172 213 172s203 -74 210 -186h-112c-5 45 -46 80 -99 80c-49 0 -87 -26 -87 -65c-1 -50 61 -65 105 -76c90 -23 205 -51 205 -192c0 -101 -95 -174 -224 -174
c-113 0 -228 75 -230 202zM202 -154c0 43 28 72 73 72c43 0 72 -29 72 -72c0 -56 -18 -103 -60 -171l-11 -17h-68l18 33c18 32 30 59 37 82c-38 5 -61 33 -61 73z" />
    <glyph glyph-name="uni021A" unicode="&#x21a;" horiz-adv-x="674" 
d="M399 0h-125v725h-252v125h629v-125h-252v-725zM264 -154c0 43 28 72 73 72c44 0 72 -29 72 -72c0 -56 -18 -103 -60 -171l-10 -17h-69l18 33c18 32 31 59 38 82c-38 5 -62 33 -62 73z" />
    <glyph glyph-name="uni021B" unicode="&#x21b;" horiz-adv-x="418" 
d="M152 727h95v-127h130v-118h-130v-269c0 -62 28 -89 90 -89h40v-124h-52c-143 0 -203 59 -203 206v276h-89v118h89zM155 -154c0 43 29 72 73 72s72 -29 72 -72c0 -56 -17 -103 -59 -171l-11 -17h-68l18 33c18 32 30 59 37 82c-38 5 -62 33 -62 73z" />
    <glyph glyph-name="uni0237" unicode="&#x237;" horiz-adv-x="256" 
d="M56 776c0 44 28 72 73 72c44 0 72 -28 72 -72s-28 -73 -72 -73c-45 0 -73 29 -73 73zM191 600v-669c0 -148 -61 -206 -204 -206h-52v123h40c63 0 91 28 91 90v662h125z" />
    <glyph glyph-name="circumflex" unicode="&#x2c6;" horiz-adv-x="516" 
d="M326 850l152 -198h-136l-84 109l-84 -109h-136l152 198h136z" />
    <glyph glyph-name="caron" unicode="&#x2c7;" horiz-adv-x="508" 
d="M324 652h-136l-152 198h136l84 -109l84 109h136z" />
    <glyph glyph-name="uni02C9" unicode="&#x2c9;" horiz-adv-x="462" 
d="M43 704v125h369v-125h-369z" />
    <glyph glyph-name="breve" unicode="&#x2d8;" horiz-adv-x="399" 
d="M17 850h100c2 -48 35 -80 82 -80s80 32 82 80h100c-2 -108 -75 -180 -182 -180c-106 0 -180 72 -182 180z" />
    <glyph glyph-name="dotaccent" unicode="&#x2d9;" horiz-adv-x="187" 
d="M20 776c0 44 28 72 73 72c44 0 72 -28 72 -72s-28 -73 -72 -73c-45 0 -73 29 -73 73z" />
    <glyph glyph-name="ring" unicode="&#x2da;" horiz-adv-x="260" 
d="M26 749c0 62 43 103 105 103c61 0 104 -41 104 -103c0 -61 -43 -103 -104 -103c-62 0 -105 42 -105 103zM131 800c-29 0 -52 -21 -52 -51c0 -29 23 -50 52 -50s51 21 51 50c0 30 -22 51 -51 51z" />
    <glyph glyph-name="ogonek" unicode="&#x2db;" horiz-adv-x="204" 
d="M100 12l46 -12c-26 -26 -40 -54 -36 -81c6 -30 32 -50 70 -50v-82c-99 0 -148 37 -153 112c-4 51 20 87 73 113z" />
    <glyph glyph-name="tilde" unicode="&#x2dc;" horiz-adv-x="536" 
d="M110 676h-80c9 106 61 174 131 174c94 0 141 -73 204 -73c30 0 49 25 54 73h80c-3 -104 -57 -174 -133 -174c-99 0 -132 74 -199 74c-27 0 -51 -31 -57 -74z" />
    <glyph glyph-name="hungarumlaut" unicode="&#x2dd;" horiz-adv-x="458" 
d="M123 653h-99l53 197h139zM345 653h-99l53 197h138z" />
    <glyph glyph-name="uni0326" unicode="&#x326;" horiz-adv-x="192" 
d="M23 67c0 44 28 72 73 72c43 0 72 -28 72 -72c0 -55 -18 -103 -60 -170l-11 -18h-68l18 33c18 32 30 59 37 83c-38 4 -61 32 -61 72z" />
    <glyph glyph-name="uni0394" unicode="&#x394;" horiz-adv-x="830" 
d="M10 0l338 850h134l338 -850h-810zM192 121h446l-223 561z" />
    <glyph glyph-name="uni03A9" unicode="&#x3a9;" horiz-adv-x="951" 
d="M354 0h-308v123h126c-59 74 -93 175 -93 293c0 257 164 439 396 439c233 0 396 -182 396 -439c0 -118 -34 -219 -93 -293h127v-123h-308v123c93 48 149 153 149 292c0 187 -111 317 -271 317s-271 -131 -271 -317c0 -139 57 -244 150 -292v-123z" />
    <glyph glyph-name="uni03BC" unicode="&#x3bc;" horiz-adv-x="623" 
d="M167 299c0 -110 56 -181 144 -181c82 0 141 77 141 182v300h125v-600h-125v98c-22 -61 -88 -105 -162 -105c-47 0 -89 11 -123 33v-247h-125v821h125v-301z" />
    <glyph glyph-name="pi" unicode="&#x3c0;" horiz-adv-x="793" 
d="M753 124v-124h-43c-143 0 -204 59 -204 206v280h-235v-486h-125v486h-110v114h717v-114h-122v-273c0 -62 28 -89 90 -89h32z" />
    <glyph glyph-name="Wgrave" unicode="&#x1e80;" horiz-adv-x="1075" 
d="M484 903l-93 197h139l53 -197h-99zM265 0l1 3l-257 847h130l185 -607l149 607h128l147 -609l186 609h130l-258 -850h-128l-141 586l-144 -586h-128z" />
    <glyph glyph-name="wgrave" unicode="&#x1e81;" horiz-adv-x="909" 
d="M402 653l-92 197h138l53 -197h-99zM332 0h-130l-188 600h131l122 -391l122 391h130l122 -391l122 391h131l-187 -600h-131l-122 391z" />
    <glyph glyph-name="Wacute" unicode="&#x1e82;" horiz-adv-x="1075" 
d="M587 903h-99l53 197h138zM265 0l1 3l-257 847h130l185 -607l149 607h128l147 -609l186 609h130l-258 -850h-128l-141 586l-144 -586h-128z" />
    <glyph glyph-name="wacute" unicode="&#x1e83;" horiz-adv-x="909" 
d="M503 653h-99l53 197h139zM332 0h-130l-188 600h131l122 -391l122 391h130l122 -391l122 391h131l-187 -600h-131l-122 391z" />
    <glyph glyph-name="Wdieresis" unicode="&#x1e84;" horiz-adv-x="1075" 
d="M354 1026c0 44 28 72 73 72c43 0 72 -28 72 -72s-29 -73 -72 -73c-45 0 -73 29 -73 73zM577 1026c0 44 28 72 73 72c44 0 72 -28 72 -72s-28 -73 -72 -73c-45 0 -73 29 -73 73zM265 0l1 3l-257 847h130l185 -607l149 607h128l147 -609l186 609h130l-258 -850h-128
l-141 586l-144 -586h-128z" />
    <glyph glyph-name="wdieresis" unicode="&#x1e85;" horiz-adv-x="909" 
d="M270 776c0 44 28 72 73 72c44 0 72 -28 72 -72s-28 -73 -72 -73c-45 0 -73 29 -73 73zM493 776c0 44 29 72 73 72s72 -28 72 -72s-28 -73 -72 -73s-73 29 -73 73zM332 0h-130l-188 600h131l122 -391l122 391h130l122 -391l122 391h131l-187 -600h-131l-122 391z" />
    <glyph glyph-name="endash" unicode="&#x2013;" horiz-adv-x="528" 
d="M41 324v123h442v-123h-442z" />
    <glyph glyph-name="emdash" unicode="&#x2014;" horiz-adv-x="778" 
d="M41 324v123h687v-123h-687z" />
    <glyph glyph-name="quoteleft" unicode="&#x2018;" horiz-adv-x="224" 
d="M181 663c0 -44 -28 -73 -73 -73c-44 0 -72 29 -72 73c0 55 18 102 60 170l10 17h69l-18 -33c-18 -31 -31 -59 -38 -82c39 -5 62 -33 62 -72z" />
    <glyph glyph-name="quoteright" unicode="&#x2019;" horiz-adv-x="224" 
d="M40 778c0 44 29 72 73 72s72 -28 72 -72c0 -55 -17 -103 -59 -170l-11 -18h-68l18 33c18 32 30 59 37 82c-38 5 -62 33 -62 73z" />
    <glyph glyph-name="quotesinglbase" unicode="&#x201a;" horiz-adv-x="230" 
d="M44 67c0 44 29 72 73 72s72 -28 72 -72c0 -55 -17 -103 -59 -170l-11 -18h-68l18 33c18 32 30 59 37 83c-38 4 -62 32 -62 72z" />
    <glyph glyph-name="quotedblleft" unicode="&#x201c;" horiz-adv-x="427" 
d="M181 663c0 -44 -28 -73 -73 -73c-44 0 -72 29 -72 73c0 55 18 102 60 170l10 17h69l-18 -33c-18 -31 -31 -59 -38 -82c39 -5 62 -33 62 -72zM384 663c0 -44 -28 -73 -73 -73c-44 0 -72 29 -72 73c0 55 18 102 60 170l10 17h69l-18 -33c-18 -31 -31 -59 -38 -82
c39 -5 62 -33 62 -72z" />
    <glyph glyph-name="quotedblright" unicode="&#x201d;" horiz-adv-x="427" 
d="M242 778c0 44 28 72 73 72c44 0 72 -28 72 -72c0 -55 -18 -103 -60 -170l-10 -18h-69l18 33c18 32 31 59 37 82c-38 5 -61 33 -61 73zM39 778c0 44 28 72 73 72c44 0 72 -28 72 -72c0 -55 -18 -103 -60 -170l-10 -18h-69l18 33c18 32 31 59 37 82c-38 5 -61 33 -61 73z
" />
    <glyph glyph-name="quotedblbase" unicode="&#x201e;" horiz-adv-x="430" 
d="M245 67c0 44 28 72 73 72c44 0 72 -28 72 -72c0 -55 -18 -103 -60 -170l-10 -18h-69l18 33c18 32 31 59 38 83c-38 4 -62 32 -62 72zM42 67c0 44 28 72 73 72c44 0 72 -28 72 -72c0 -55 -18 -103 -60 -170l-10 -18h-69l18 33c18 32 31 59 38 83c-38 4 -62 32 -62 72z" />
    <glyph glyph-name="dagger" unicode="&#x2020;" horiz-adv-x="546" 
d="M332 -152h-125v627h-158v125h158v250h125v-250h159v-125h-159v-627z" />
    <glyph glyph-name="daggerdbl" unicode="&#x2021;" horiz-adv-x="512" 
d="M332 -152h-125v260h-158v125h158v242h-158v125h158v250h125v-250h159v-125h-159v-242h159v-125h-159v-260z" />
    <glyph glyph-name="bullet" unicode="&#x2022;" horiz-adv-x="281" 
d="M42 483c0 60 40 99 100 99s99 -39 99 -99s-39 -99 -99 -99s-100 39 -100 99z" />
    <glyph glyph-name="ellipsis" unicode="&#x2026;" horiz-adv-x="667" 
d="M38 67c0 44 29 72 73 72s72 -28 72 -72s-28 -73 -72 -73s-73 29 -73 73zM261 67c0 44 28 72 73 72c44 0 72 -28 72 -72s-28 -73 -72 -73c-45 0 -73 29 -73 73zM483 67c0 44 29 72 73 72s72 -28 72 -72s-28 -73 -72 -73s-73 29 -73 73z" />
    <glyph glyph-name="perthousand" unicode="&#x2030;" horiz-adv-x="1569" 
d="M42 628c0 125 93 222 214 222s214 -97 214 -222c0 -127 -93 -223 -214 -223s-214 96 -214 223zM448 0h-125l314 850h125zM256 737c-57 0 -102 -47 -102 -109s45 -110 102 -110c58 0 103 48 103 110s-45 109 -103 109zM617 217c0 125 93 222 214 222s214 -97 214 -222
c0 -127 -93 -223 -214 -223s-214 96 -214 223zM1095 217c0 125 93 222 214 222s214 -97 214 -222c0 -127 -93 -223 -214 -223s-214 96 -214 223zM831 326c-57 0 -102 -47 -102 -109s45 -110 102 -110c58 0 103 48 103 110s-45 109 -103 109zM1309 326
c-57 0 -102 -47 -102 -109s45 -110 102 -110c58 0 103 48 103 110s-45 109 -103 109z" />
    <glyph glyph-name="guilsinglleft" unicode="&#x2039;" horiz-adv-x="502" 
d="M49 359l224 241h171l-224 -241l224 -241h-171z" />
    <glyph glyph-name="guilsinglright" unicode="&#x203a;" horiz-adv-x="496" 
d="M451 359l-224 -241h-171l224 241l-224 241h171z" />
    <glyph glyph-name="fraction" unicode="&#x2044;" horiz-adv-x="469" 
d="M140 0h-125l314 850h125z" />
    <glyph glyph-name="franc" unicode="&#x20a3;" horiz-adv-x="656" 
d="M238 0h-125v119h-87v123h87v608h506v-125h-381v-237h372v-125h-372v-121h166v-123h-166v-119z" />
    <glyph glyph-name="lira" unicode="&#x20a4;" horiz-adv-x="667" 
d="M46 118c49 14 81 62 85 127h-87v119h88v108h-88v118h88v61c0 148 63 206 214 206h231v-123h-225c-66 0 -95 -28 -95 -90v-54h256v-118h-256v-108h256v-119h-257c-3 -51 -21 -94 -51 -127h410v-118h-569v118z" />
    <glyph glyph-name="peseta" unicode="&#x20a7;" horiz-adv-x="1611" 
d="M355 301h-184v-301h-125v850h300c173 0 290 -103 290 -273c0 -165 -114 -276 -281 -276zM825 727h95v-127h130v-118h-130v-269c0 -62 28 -89 90 -89h40v-124h-52c-143 0 -203 59 -203 206v276h-89v118h89zM346 725h-175v-299h184c89 0 156 63 156 151s-68 148 -165 148z
M1114 196h119c2 -53 54 -95 115 -96c57 0 96 25 96 67c0 50 -45 71 -125 93c-89 26 -186 57 -186 175c0 108 93 172 214 172c119 0 203 -74 210 -186h-113c-4 45 -46 80 -98 80c-50 0 -88 -26 -88 -65c0 -50 62 -65 106 -76c89 -23 205 -51 205 -192
c0 -101 -96 -174 -224 -174c-113 0 -229 75 -231 202z" />
    <glyph glyph-name="Euro" unicode="&#x20ac;" horiz-adv-x="897" 
d="M707 556c-41 105 -117 168 -216 168c-95 0 -168 -58 -204 -154h284l-37 -99h-269c-1 -15 -2 -30 -2 -46c0 -13 1 -25 2 -37h250l-27 -99h-204c35 -101 110 -163 207 -163c100 0 178 64 217 168h135c-44 -184 -175 -299 -349 -299s-300 114 -342 294h-95v99h82
c-1 12 -1 24 -1 37c0 16 0 31 1 46h-83v99h98c44 175 168 285 340 285c174 0 302 -115 349 -299h-136z" />
    <glyph glyph-name="uni20BA" unicode="&#x20ba;" horiz-adv-x="780" 
d="M620 408h125c-34 -265 -204 -408 -494 -408h-84v329l-125 -35v110l125 35v77l-125 -34v110l125 35v223h125v-188l226 63v-111l-226 -63v-77l226 63v-110l-226 -63v-239c188 6 299 104 328 283z" />
    <glyph glyph-name="uni2113" unicode="&#x2113;" horiz-adv-x="509" 
d="M321 124h38v-124h-49c-146 0 -208 61 -208 214v112c-23 -2 -46 -2 -69 -1v98c24 0 47 2 69 6v207c0 130 75 219 182 219c114 0 186 -80 186 -207c0 -129 -102 -243 -243 -294v-131c0 -69 29 -99 94 -99zM227 631v-162c74 39 119 99 119 169c0 61 -21 94 -62 94
c-39 0 -57 -38 -57 -101z" />
    <glyph glyph-name="trademark" unicode="&#x2122;" horiz-adv-x="415" 
d="M123 656h-33v162h-55v32h143v-32h-55v-162zM225 656h-32v194h32l60 -97l62 97h32v-194h-32v134l-48 -75h-26l-48 75v-134z" />
    <glyph glyph-name="estimated" unicode="&#x212e;" horiz-adv-x="697" 
d="M563 245l31 -23c-58 -74 -147 -121 -248 -121c-174 0 -315 141 -315 315s141 315 315 315s315 -141 315 -315c0 -7 0 -13 -1 -19h-524v-161c51 -59 126 -96 210 -96c88 0 166 41 217 105zM136 596v-161h410v172c-51 52 -121 85 -200 85c-84 0 -159 -37 -210 -96z" />
    <glyph glyph-name="partialdiff" unicode="&#x2202;" horiz-adv-x="678" 
d="M636 292c0 -167 -130 -298 -300 -298c-168 0 -297 131 -297 298c0 168 131 298 299 297l-188 261h144l278 -373c40 -50 64 -114 64 -185zM336 464c-98 0 -172 -76 -172 -172s75 -173 172 -173c99 0 175 76 175 173c0 96 -76 172 -175 172z" />
    <glyph glyph-name="product" unicode="&#x220f;" horiz-adv-x="788" 
d="M74 -250v1100h644v-1100h-125v975h-394v-975h-125z" />
    <glyph glyph-name="summation" unicode="&#x2211;" horiz-adv-x="684" 
d="M61 722v128h562v-128h-423l202 -422l-202 -422h423v-128h-562v128l203 422z" />
    <glyph glyph-name="minus" unicode="&#x2212;" horiz-adv-x="620" 
d="M41 324v123h531v-123h-531z" />
    <glyph glyph-name="uni2215" unicode="&#x2215;" horiz-adv-x="722" 
d="M155 0h-140l550 850h140z" />
    <glyph glyph-name="uni2219" unicode="&#x2219;" horiz-adv-x="287" 
d="M42 483c0 60 40 99 100 99s99 -39 99 -99s-39 -99 -99 -99s-100 39 -100 99z" />
    <glyph glyph-name="radical" unicode="&#x221a;" horiz-adv-x="877" 
d="M369 0l-165 340h-160v127h237l152 -304l269 687h134l-333 -850h-134z" />
    <glyph glyph-name="infinity" unicode="&#x221e;" horiz-adv-x="972" 
d="M49 432c0 125 100 227 223 227c91 0 156 -53 216 -129c60 76 125 129 216 129c123 0 223 -102 223 -227s-100 -228 -223 -228c-91 0 -156 53 -216 130c-60 -77 -125 -130 -216 -130c-123 0 -223 103 -223 228zM171 432c0 -58 44 -107 101 -107c50 0 96 40 146 107
c-51 68 -97 106 -146 106c-57 0 -101 -47 -101 -106zM805 432c0 59 -44 106 -101 106c-49 0 -95 -38 -146 -106c50 -67 96 -107 146 -107c57 0 101 49 101 107z" />
    <glyph glyph-name="integral" unicode="&#x222b;" horiz-adv-x="409" 
d="M372 734h-40c-62 0 -90 -28 -90 -90v-695c0 -148 -60 -206 -204 -206h-52v123h41c62 0 90 28 90 90v695c0 148 60 206 203 206h52v-123z" />
    <glyph glyph-name="approxequal" unicode="&#x2248;" horiz-adv-x="546" 
d="M112 425h-80c9 106 63 174 135 174c97 0 141 -73 211 -73c32 0 52 25 57 73h80c-3 -104 -58 -174 -137 -174c-103 0 -135 74 -206 74c-28 0 -54 -31 -60 -74zM112 213h-80c9 106 63 174 135 174c97 0 141 -73 211 -73c32 0 52 25 57 73h80c-3 -104 -58 -174 -137 -174
c-103 0 -135 74 -206 74c-28 0 -54 -31 -60 -74z" />
    <glyph glyph-name="notequal" unicode="&#x2260;" horiz-adv-x="531" 
d="M45 466v123h225l35 93h125l-34 -93h88v-123h-134l-47 -127h181v-124h-227l-34 -93h-125l34 93h-87v124h133l47 127h-180z" />
    <glyph glyph-name="lessequal" unicode="&#x2264;" horiz-adv-x="552" 
d="M56 459v129l439 170v-129l-273 -105l273 -106v-128zM56 86v123h439v-123h-439z" />
    <glyph glyph-name="greaterequal" unicode="&#x2265;" horiz-adv-x="548" 
d="M56 290v128l273 106l-273 105v129l439 -170v-129zM495 86h-439v123h439v-123z" />
    <glyph glyph-name="lozenge" unicode="&#x25ca;" horiz-adv-x="689" 
d="M15 300l260 550h134l261 -550l-261 -550h-134zM342 -108l194 408l-194 408l-193 -408z" />
    <glyph glyph-name="longs_t" unicode="&#xfb05;" horiz-adv-x="643" 
d="M260 600h89l24 103h-110c-62 0 -90 -27 -90 -89v-614h-125v621c0 147 61 206 204 206h222v-227h130v-118h-130v-269c0 -62 28 -89 90 -89h40v-124h-52c-143 0 -203 59 -203 206v276h-89v118z" />
    <glyph glyph-name="a.alt" horiz-adv-x="641" 
d="M460 0v84c-25 -50 -104 -90 -179 -90c-139 0 -229 78 -229 192c0 117 76 170 245 170h163v6c0 82 -50 130 -136 130c-59 0 -114 -35 -122 -80h-131c8 112 116 195 252 195c161 0 262 -94 262 -245v-362h-125zM177 195c0 -50 46 -82 122 -82c93 0 161 53 161 127v32h-161
c-83 0 -122 -25 -122 -77z" />
    <glyph glyph-name="y.alt" horiz-adv-x="625" 
d="M164 299c0 -110 57 -181 145 -181c81 0 141 77 141 182v300h125v-568c0 -185 -106 -307 -264 -307c-135 0 -235 87 -263 227h132c23 -64 72 -102 132 -102c82 0 138 72 138 182v66c-23 -61 -89 -105 -163 -105c-152 0 -248 122 -248 306v301h125v-301z" />
    </font>
</defs>
</svg>
